<svg id="Layer_1" xmlns="http://www.w3.org/2000/svg" viewBox="0 0 50 50">
  <style>
    .st0{fill:#59799c}
  </style>
  <path class="st0" d="M29.1 15.6c-.3 0-.5-.2-.5-.5V8.3c0-.3.2-.5.5-.5s.5.2.5.5v6.8c0 .3-.2.5-.5.5M8.6 42.1c-.3 0-.5-.2-.5-.5V18.2c0-.3.2-.5.5-.5s.5.2.5.5v23.5c0 .2-.2.4-.5.4m5.1 0c-.3 0-.5-.2-.5-.5V18.2c0-.3.2-.5.5-.5s.5.2.5.5v23.5c0 .2-.2.4-.5.4M.5 18.6c-.2 0-.4-.1-.4-.4-.1-.3.1-.5.4-.6L6.7 16c.2-.1.5.1.6.4.1.3 0 .5-.3.6L.6 18.6H.5"/>
  <path class="st0" d="M15.4 14.7c-.2 0-.4-.1-.4-.4-.1-.3.1-.5.4-.6l18.9-5c.3-.1.5.1.6.4.1.3-.1.5-.4.6l-18.9 5h-.2"/>
  <path class="st0" d="M8.5 12.6c-.5 0-1 .4-1 1v3.1c0 .5.4 1 1 1h5.2c.5 0 1-.4 1-1v-3.1c0-.5-.4-1-1-1H8.5zm5.3 6.1H8.5c-1.1 0-2-.9-2-2v-3.1c0-1.1.9-2 2-2h5.2c1.1 0 2 .9 2 2v3.1c.1 1.1-.8 2-1.9 2"/>
  <path class="st0" d="M9.1 11.5h4.1v-1.1H9.1v1.1zm4.6 1H8.6c-.3 0-.5-.2-.5-.5V9.8c0-.3.2-.5.5-.5h5.1c.3 0 .5.2.5.5V12c0 .3-.2.5-.5.5m13.2 28.7h18V29.3h-18v11.9zm18.4 1h-19c-.3 0-.5-.2-.5-.5V28.8c0-.3.2-.5.5-.5h19c.3 0 .5.2.5.5v12.9c.1.3-.2.5-.5.5m-36.7-1h5.1v1H8.6zm15-16.6h24.5l-3.5-3.3c-.1-.1-.1-.2-.1-.4v-7H41v2.7c0 .2-.1.4-.3.4-.1.1-.4.1-.5-.1l-4.3-4-12.3 11.7zm25.8 1H22.5c-.2 0-.4-.1-.4-.3-.1-.2 0-.4.1-.5l13.5-12.9c.2-.1.5-.1.7 0l3.7 3.6v-2c0-.3.2-.5.5-.5H45c.3 0 .5.2.5.5v7.2l4.3 4c.1.1.2.4.1.5-.2.2-.4.4-.5.4"/>
</svg>