<svg id="Layer_1" xmlns="http://www.w3.org/2000/svg" viewBox="0 0 50 50">
  <style>
    .st0{fill:#59799c}
  </style>
  <path class="st0" d="M3.1 35c-.6 0-1 .4-1 .8V48c0 .5.5.8 1 .8h4.8c.6 0 1-.4 1-.8V35.8c0-.5-.5-.8-1-.8H3.1zm4.7 15H3.1C2 50 1 49.2 1 48V35.8c0-1 .9-2 2.1-2h4.8c1.1 0 2.1.8 2.1 2V48c0 1.1-1.1 2-2.2 2"/>
  <path class="st0" d="M10.8 48.8c-1 0-2-1-2-2.3 0-.3.3-.6.6-.6s.6.3.6.6c0 .7.4 1.2.8 1.2h22.1c1.9 0 4.6-1.1 6-2.4l8.5-8.4c.4-.4.7-.9.7-1.5s-.3-1.1-.7-1.5l-.6-.5c-.8-.8-2.2-.8-3.1 0l-5.9 5.9c-1.1 1.1-3.4 2.1-4.9 2.1h-12c-.3 0-.6-.3-.6-.6s.3-.6.6-.6h12c1.3 0 3.3-.8 4.2-1.8l5.9-5.9c1.2-1.2 3.4-1.3 4.6-.1l.6.5c.7.6.9 1.4.9 2.2 0 .8-.3 1.7-.9 2.2l-8.5 8.4c-1.5 1.5-4.6 2.8-6.7 2.8l-22.2.3z"/>
  <path class="st0" d="M26.6 41.2c-.3 0-.6-.3-.6-.6s.3-.6.6-.6c.7 0 1.4-.7 1.4-1.4v-1.2c0-.7-.7-1.4-1.4-1.4H9.4c-.3 0-.6-.3-.6-.6s.3-.6.6-.6h17.2c1.3 0 2.4 1.1 2.4 2.4v1.2c0 1.8-1 2.8-2.4 2.8m.5-27.3c-.1 0-.2 0-.3-.1-.3-.2-.5-.6-.3-.8l.6-1.1-.4.1c-.2.1-.4 0-.5-.1-.2-.1-.8-.5-1.4-.5s-1.2.4-1.5.5c-.2.1-.4.1-.5.1l-.3-.1.5 1c.2.3 0 .7-.3.8-.3.2-.7 0-.8-.3l-1.1-2.3c-.1-.2-.1-.5.1-.7.2-.2.4-.3.7-.2l1.4.4c.4-.2 1.1-.6 1.9-.6s1.5.4 1.9.6l1.4-.4c.2-.1.5 0 .7.2.2.2.2.5.1.7l-1.1 2.3c-.5.4-.7.5-.8.5"/>
  <path class="st0" d="M22.8 14.5c-.8.7-4.3 4-3.9 7.6.4 3.9 4.1 5 5.4 5.1.1 0 5.7.3 6.5-5 .7-4.3-3.3-7.1-4-7.6l-4-.1zm1.8 13.9h-.5c-1.6-.1-6.1-1.5-6.5-6.3-.5-4.7 4.3-8.6 4.6-8.8l.2-.2 4.8.1.2.1c.2.1 5.5 3.4 4.8 8.9-.9 4.9-5.1 6.2-7.6 6.2"/>
  <path class="st0" d="M23.9 22c.1 1 .5 1.6 1 1.6.2 0 .4-.1.6-.2.2-.1.4-.4.5-.7.1-.3.2-.4.3-.5s.2-.1.3-.1c.2 0 .3.1.4.2.1.1.2.3.2.4 0 .5-.2.8-.7 1.2-.4.4-.9.6-1.5.6s-1-.2-1.5-.7c-.4-.4-.7-1-.7-1.9h-.6c-.1 0-.1 0-.1-.1s0-.2.1-.3c.1-.1.1-.2.1-.2h.4v-.8H22c-.1 0-.1 0-.1-.1s0-.2.1-.3.1-.2.1-.2h.5c.2-1.5.9-2.2 2.1-2.2.6 0 1 .2 1.4.5.4.3.6.7.6 1 0 .2 0 .3-.1.4-.1.1-.2.2-.4.2s-.3 0-.3-.1c-.1-.1-.1-.2-.2-.4s-.2-.4-.3-.5c-.1-.1-.3-.2-.6-.2s-.6.1-.7.4c-.2.2-.3.6-.4 1h1.4c.1 0 .1 0 .1.1s0 .2-.1.3c-.1.1-.1.2-.2.2h-1.3v.8H25c.1 0 .1 0 .1.1s0 .2-.1.3c0 .1 0 .2-.1.2h-1z"/>
  <path class="st0" d="M13.4 31.5h22.8V16.6c0-.4.3-.7.7-.7h3.3L24.8 1.4 9.5 16h3.3c.4 0 .7.3.7.7v14.8zm23.5 1.3h-24c-.4 0-.7-.3-.7-.7V17.2H8c-.3 0-.5-.2-.6-.4-.1-.3 0-.5.2-.7L24.4.1c.3-.2.7-.2.8 0L42 16.2c.2.2.3.5.2.7-.1.3-.3.4-.6.4h-4.2v14.9c0 .3-.3.6-.5.6"/>
</svg>