<svg id="Layer_1" xmlns="http://www.w3.org/2000/svg" viewBox="0 0 50 50">
  <style>
    .st0{fill:#59799c}
  </style>
  <path class="st0" d="M25.7 41.2H6.5c-.4 0-.6-.3-.6-.6l-.1-20.2-4.9-.1c-.3 0-.4-.2-.5-.4-.1-.3 0-.4.2-.6l20-18.2c.2-.1.4-.1.7 0l6.2 5.6v-3c0-.4.3-.6.6-.6H35c.4 0 .6.3.6.6V14l6.1 5.4c.2.2.3.4.2.6-.1.3-.3.4-.5.4h-4.8c-.4 0-.6-.3-.6-.6s.3-.6.6-.6h3.2l-5.1-4.6c-.1-.1-.2-.3-.2-.4v-10h-5.9V8c0 .3-.2.4-.4.5-.2.1-.4.1-.6-.1l-6.8-6.1L2.2 19.1l4 .1c.4 0 .5.3.5.6L6.9 40h18.7c.4 0 .6.3.6.6s-.2.6-.5.6"/>
  <path class="st0" d="M26.1 19.8c-3 0-5.5 2.5-5.5 5.5 0 1.5.5 2.8 1.6 3.9.3.3.3.6 0 .8l-1.1 1.1c-.2.2-.4.4-.4.8 0 .3.1.5.4.8L36 47.6c.2.2.4.4.8.4.3 0 .5-.1.8-.4l10.5-10.5c.4-.4.4-1.1 0-1.5l-14.8-15c-.4-.4-1.1-.4-1.5 0l-.9.9c-.3.3-.6.3-.8 0-1.1-1.1-2.5-1.7-4-1.7M36.9 49c-.6 0-1.1-.3-1.6-.6L20.4 33.5c-.4-.4-.6-1-.6-1.6 0-.6.3-1.1.6-1.6l.6-.6c-1-1.2-1.5-2.7-1.5-4.2 0-3.7 3-6.7 6.7-6.7 1.6 0 3.1.5 4.2 1.5l.5-.5c.9-.9 2.3-.9 3.2 0L49 34.7c.9.9.9 2.3 0 3.2L38.5 48.4c-.3.3-.9.6-1.6.6"/>
  <path class="st0" d="M25.3 22.9c-.9 0-1.6.7-1.6 1.6s.7 1.6 1.6 1.6c.9 0 1.6-.7 1.6-1.6 0-.9-.7-1.6-1.6-1.6m0 4.4c-1.5 0-2.8-1.2-2.8-2.8 0-1.5 1.2-2.8 2.8-2.8 1.5 0 2.8 1.2 2.8 2.8 0 1.6-1.3 2.8-2.8 2.8m5.6.2l-1.2 1.2 1.2 1.2 1.2-1.2.7.7-3.1 3.3-.8-.7 1.4-1.4-1.3-1.2-1.3 1.3-.8-.7 3.3-3.2zm3.3 3.3l-1.8 1.8c-.5.5-.6 1.1-.3 1.4.4.4.9.4 1.4-.3l1.8-1.8.7.7-1.8 1.8c-1 1-1.9 1-2.8.1-.8-.8-.8-1.8.2-2.8l1.8-1.8.8.9zm3.3 3.3l-1.8 1.8c-.5.5-.6 1.1-.3 1.4s.9.4 1.4-.3l1.8-1.8.7.7-1.8 1.8c-1 1-1.9 1-2.8.1-.8-.8-.9-1.8.2-2.8l1.8-1.8.8.9zm1.8 4.6l.3.3c.4.4.8.4 1.1.1.3-.3.3-.6-.1-1l-.4-.4-.9 1zm.7-2.1c.3.2.6.5 1.1.9.4.4.7.9.8 1.3 0 .4-.1.7-.4 1-.4.4-1 .4-1.4.3.2.4.1.6-.2 1.1-.3.4-.6 1-.6 1.1l-.8-.8c.1-.2.3-.5.5-1 .4-.5.3-.7 0-1.1l-.2-.2-1.2 1.2-.7-.7 3.1-3.1z"/>
</svg>