<svg id="Layer_1" xmlns="http://www.w3.org/2000/svg" viewBox="0 0 50 50">
  <style>
    .st0{fill:#59799c}
  </style>
  <path class="st0" d="M24.8 3.7c-5.8 0-10.4 4.4-10.4 9.8 0 4.8 8.2 16.1 10.4 19.1 2.2-3 10.4-14.3 10.4-19.1 0-5.4-4.6-9.8-10.4-9.8m0 30.8c-.2 0-.4-.1-.5-.3-.4-.6-11.2-14.7-11.2-20.7 0-6.2 5.2-11.3 11.7-11.3s11.7 5 11.7 11.3c0 6-10.8 20.1-11.2 20.7 0 .2-.2.3-.5.3"/>
  <path class="st0" d="M24.8 10.4c-2.2 0-4 1.8-4 4s1.8 4 4 4 4-1.8 4-4-1.8-4-4-4m0 9.3c-2.9 0-5.3-2.4-5.3-5.3s2.4-5.3 5.3-5.3 5.3 2.4 5.3 5.3-2.3 5.3-5.3 5.3m24.3 28.1H.9c-.2 0-.4-.1-.5-.3-.1-.2-.2-.4-.1-.6L6 26.7c.1-.3.3-.5.6-.5h9.1c.4 0 .7.3.7.7s-.3.7-.7.7H7.2L1.8 46.4h46.4l-5.8-18.8h-8.3c-.4 0-.7-.3-.7-.7s.3-.7.7-.7h8.7c.3 0 .6.2.6.5l6.2 20.2c.1.2 0 .4-.1.6 0 .2-.2.3-.4.3"/>
</svg>