<svg id="Layer_1" xmlns="http://www.w3.org/2000/svg" xmlns:xlink="http://www.w3.org/1999/xlink" viewBox="0 0 50 50">
  <style>
    .st0{clip-path:url(#SVGID_2_);fill:#003063}
  </style>
  <defs>
    <path id="SVGID_1_" d="M0 .7h50v48.6H0z"/>
  </defs>
  <clipPath id="SVGID_2_">
    <use xlink:href="#SVGID_1_" overflow="visible"/>
  </clipPath>
  <path class="st0" d="M42.6 49.3l-35.2-.1c-.4 0-.7-.3-.7-.7V24.3H.6c-.3 0-.6-.2-.7-.4-.1-.3 0-.6.2-.8l7.2-6.6L7.4 4c0-.4.3-.7.7-.7h8.3c.4 0 .7.3.7.7v3.7L24.6.9c.3-.2.7-.2.9 0l24.2 21.9c.3.3.3.7.1 1-.3.3-.7.3-1 .1L25.1 2.4l-8.2 7.4c-.2.2-.5.2-.8.1-.3-.1-.4-.4-.4-.6V4.7H8.8v12.1c0 .2-.1.4-.2.5l-6.1 5.6h4.9c.2 0 .4.1.5.2.1.1.2.3.2.5v24.2l33.8.1.1-24.4c0-.4.3-.7.7-.7l5-.1-.9-1c-.3-.3-.3-.7 0-1 .3-.3 3.1 2.2 3.1 2.2.2.2.2.5.1.7-.1.3-.4.4-.6.4l-5.9.1-.1 24.4c-.1.5-.4.8-.8.8"/>
  <path class="st0" d="M14.9 30.8l2 7.6 18.5-5-2-7.6-18.5 5zm1.5 9.2c-.1 0-.2 0-.4-.1s-.3-.2-.3-.4l-2.4-8.9c0-.2 0-.4.1-.5.1-.2.2-.3.4-.3l19.9-5.3c.4-.1.8.1.9.5l2.4 8.9c.1.4-.1.8-.5.9l-19.9 5.3c-.1-.1-.1-.1-.2-.1"/>
  <path class="st0" d="M17.2 30.2c-.1 0-.2 0-.3-.1-.3-.2-.5-.6-.3-.9l4.8-9.5c.1-.2.2-.3.4-.4.2-.1.4 0 .6.1l9.2 5.7c.3.2.4.6.2 1-.2.3-.6.4-1 .2L22.3 21l-4.4 8.8c-.2.2-.4.4-.7.4m8 4.5c-.2 0-.3-.1-.4-.2l-1.7-1.3c-.3-.2-.4-.7-.1-1 .2-.3.7-.4 1-.1l1 .8 1.8-3.6c.2-.3.6-.5.9-.3.3.2.5.6.3.9l-2.2 4.4c-.1.2-.3.3-.5.4h-.1"/>
</svg>