<?xml version="1.0" encoding="utf-8"?>
<!-- Generator: Adobe Illustrator 21.1.0, SVG Export Plug-In . SVG Version: 6.00 Build 0)  -->
<svg version="1.1" id="Laag_1" xmlns="http://www.w3.org/2000/svg" xmlns:xlink="http://www.w3.org/1999/xlink" x="0px" y="0px"
	 viewBox="0 0 35.7 48.4" style="enable-background:new 0 0 35.7 48.4;" xml:space="preserve">
<style type="text/css">
	.st0{fill:#FFFFFF;}
</style>
<path class="st0" d="M17.8,30.6c-0.2,0-0.3-0.1-0.4-0.2c-0.3-0.4-8-10.6-8-14.9c0-4.5,3.8-8.1,8.4-8.1s8.4,3.6,8.4,8.1
	c0,4.3-7.7,14.5-8,14.9C18.1,30.5,17.9,30.6,17.8,30.6z"/>
<path class="st0" d="M17.8,8.4c-4.1,0-7.4,3.2-7.4,7.1c0,3.4,5.8,11.6,7.4,13.7c1.6-2.2,7.4-10.3,7.4-13.7
	C25.2,11.6,21.9,8.4,17.8,8.4z"/>
<circle class="st0" cx="17.8" cy="16.1" r="3.8"/>
<path class="st0" d="M17.8,13.3c-1.6,0-2.8,1.3-2.8,2.8s1.3,2.8,2.8,2.8s2.8-1.3,2.8-2.8S19.3,13.3,17.8,13.3z"/>
<path class="st0" d="M35.2,40.1H0.5c-0.2,0-0.3-0.1-0.4-0.2C0,39.8,0,39.7,0,39.5L4.2,25c0.1-0.2,0.3-0.4,0.5-0.4h6.5
	c0.3,0,0.5,0.2,0.5,0.5s-0.2,0.5-0.5,0.5H5L1.2,39.1h33.3l-4.1-13.5h-5.9c-0.3,0-0.5-0.2-0.5-0.5s0.2-0.5,0.5-0.5h6.2
	c0.2,0,0.4,0.1,0.5,0.4l4.4,14.5c0,0.2,0,0.3-0.1,0.4C35.5,40.1,35.3,40.1,35.2,40.1z"/>
</svg>
