<?xml version="1.0" encoding="utf-8"?>
<!-- Generator: Adobe Illustrator 21.1.0, SVG Export Plug-In . SVG Version: 6.00 Build 0)  -->
<svg version="1.1" id="Laag_1" xmlns="http://www.w3.org/2000/svg" xmlns:xlink="http://www.w3.org/1999/xlink" x="0px" y="0px"
	 viewBox="0 0 43.3 48.4" style="enable-background:new 0 0 43.3 48.4;" xml:space="preserve">
<style type="text/css">
	.st0{fill:#FFFFFF;}
</style>
<g>
	<path class="st0" d="M22.4,38.9H5.6c-0.3,0-0.5-0.2-0.5-0.5L5,21.2l-4.3-0.1c-0.2,0-0.4-0.1-0.5-0.3c-0.1-0.2,0-0.4,0.1-0.5
		L17.8,4.6c0.2-0.2,0.5-0.2,0.7,0l5.4,4.8V6.8c0-0.3,0.2-0.5,0.5-0.5h6c0.3,0,0.5,0.2,0.5,0.5v8.8l5.2,4.7c0.2,0.1,0.2,0.4,0.1,0.6
		c-0.1,0.2-0.3,0.3-0.5,0.3h-4.2c-0.3,0-0.5-0.2-0.5-0.5c0-0.3,0.2-0.5,0.5-0.5h2.8l-4.4-4c-0.1-0.1-0.2-0.2-0.2-0.4V7.2h-5v3.3
		c0,0.2-0.1,0.4-0.3,0.5c-0.2,0.1-0.4,0-0.5-0.1l-5.9-5.3L2,20.1l3.5,0.1c0.3,0,0.5,0.2,0.5,0.5l0.1,17.2h16.3
		c0.3,0,0.5,0.2,0.5,0.5C22.9,38.6,22.6,38.9,22.4,38.9L22.4,38.9z"/>
	<path class="st0" d="M32.1,45.5c-0.5,0-1-0.2-1.4-0.6L17.8,32.2c-0.4-0.4-0.6-0.8-0.6-1.4c0-0.6,0.2-1,0.6-1.4l0.5-0.5
		c-0.9-1-1.3-2.3-1.3-3.6c0-3.1,2.6-5.7,5.8-5.7c1.3,0,2.6,0.5,3.7,1.3l0.4-0.4c0.7-0.7,2-0.7,2.7,0l13,12.8c0.7,0.7,0.7,2,0,2.7
		l-9.2,9C33.2,45.3,32.6,45.5,32.1,45.5z M22.8,20.7c-2.6,0-4.8,2.1-4.8,4.7c0,1.2,0.5,2.4,1.4,3.3c0.2,0.2,0.2,0.5,0,0.7l-0.9,0.9
		c-0.2,0.2-0.3,0.4-0.3,0.6c0,0.2,0.1,0.5,0.3,0.6l13,12.8c0.2,0.2,0.4,0.3,0.6,0.3c0.2,0,0.5-0.1,0.6-0.3l9.2-9
		c0.4-0.4,0.4-0.9,0-1.3L29,21.3c-0.4-0.4-0.9-0.4-1.3,0l-0.8,0.8c-0.2,0.2-0.5,0.2-0.7,0C25.2,21.2,24,20.7,22.8,20.7z"/>
	<path class="st0" d="M22.1,27.1c-1.3,0-2.4-1.1-2.4-2.4c0-1.3,1.1-2.4,2.4-2.4s2.4,1.1,2.4,2.4C24.5,26,23.4,27.1,22.1,27.1z
		 M22.1,23.4c-0.8,0-1.4,0.6-1.4,1.4c0,0.8,0.6,1.4,1.4,1.4c0.8,0,1.4-0.6,1.4-1.4C23.5,24,22.8,23.4,22.1,23.4z"/>
	<path class="st0" d="M20.4,23.7c-0.1,0-0.2,0-0.2-0.1c-0.8-0.4-8.3-4.1-8.7-6.8c-0.1-0.5,0.1-1,0.4-1.3c0,0,0.5-0.5,1.3-0.4
		c2,0.2,4.6,2.8,7.6,7.8c0.1,0.2,0.1,0.4-0.1,0.6C20.6,23.6,20.5,23.7,20.4,23.7z M12.9,16.1c-0.3,0-0.4,0.1-0.4,0.1
		c-0.1,0.2-0.1,0.3-0.1,0.5c0.2,1.3,3.7,3.6,6.6,5.2c-3.2-4.6-5-5.6-5.8-5.7C13.1,16.1,13,16.1,12.9,16.1L12.9,16.1z M26.9,27.3
		l-1.1,1.1l1,1l1.1-1.1l0.6,0.6l-2.8,2.8l-0.6-0.6l1.2-1.2l-1-1l-1.2,1.2l-0.6-0.6l2.8-2.8L26.9,27.3z M29.8,30.1l-1.6,1.6
		c-0.5,0.5-0.5,0.9-0.2,1.2c0.3,0.3,0.7,0.3,1.2-0.2l1.6-1.6l0.6,0.6l-1.5,1.6c-0.9,0.9-1.7,0.8-2.4,0.1c-0.7-0.7-0.7-1.5,0.2-2.4
		l1.5-1.5L29.8,30.1z M32.6,32.8L31,34.4c-0.5,0.5-0.5,0.9-0.2,1.2c0.3,0.3,0.7,0.3,1.2-0.2l1.6-1.6l0.6,0.6L32.7,36
		c-0.9,0.9-1.7,0.8-2.4,0.1c-0.7-0.7-0.7-1.5,0.2-2.4l1.5-1.5L32.6,32.8L32.6,32.8z M34.8,35c0.2,0.2,0.6,0.4,0.9,0.8
		c0.4,0.4,0.6,0.8,0.7,1.1c0,0.3-0.1,0.6-0.3,0.8c-0.3,0.3-0.8,0.3-1.2,0.2c0.1,0.3,0,0.6-0.1,0.9c-0.2,0.4-0.5,0.8-0.6,1l-0.6-0.6
		c0-0.1,0.2-0.4,0.5-0.8c0.3-0.4,0.2-0.6,0-0.9l-0.3-0.2l-1.1,1.1L32,37.8L34.8,35L34.8,35z M34.2,36.8l0.2,0.2
		c0.3,0.3,0.7,0.3,0.9,0.1c0.3-0.3,0.2-0.6-0.1-0.8L34.9,36L34.2,36.8L34.2,36.8z"/>
</g>
</svg>
