<svg id="Laag_1" xmlns="http://www.w3.org/2000/svg" viewBox="0 0 38.7 48.4">
  <style>
    .st0{fill:#fff}
  </style>
  <path class="st0" d="M-327.2 42l-24.9-.1c-.3 0-.5-.2-.5-.5l.1-17.1h-4.3c-.2 0-.4-.1-.5-.3-.1-.2 0-.4.1-.6l5.1-4.7V9.9c0-.3.2-.5.5-.5h5.9c.3 0 .5.2.5.5v2.6l5.3-4.8c.2-.2.5-.2.7 0l4.8 4.3c.2.2.2.5 0 .7-.2.2-.5.2-.7 0l-4.4-4-5.8 5.3c-.1.1-.4.2-.5.1-.2-.1-.3-.3-.3-.5v-3.3h-4.9V19c0 .1-.1.3-.2.4l-4.4 3.9h3.5c.1 0 .3.1.4.1s.1.2.1.4l-.1 17.1 23.9.1.1-17.3c0-.3.2-.5.5-.5h3.5l-.6-.7c-.2-.2-.2-.5 0-.7.2-.2.5-.2.7 0l1.4 1.5c.1.1.2.4.1.5-.1.2-.3.3-.5.3h-4.2l-.1 17.3c.2.4 0 .6-.3.6z"/>
  <path class="st0" d="M-336.2 35.3h-6c-1.1 0-1.9-.9-1.9-1.9V28c0-1.1.9-1.9 1.9-1.9h6c1.1 0 1.9.9 1.9 1.9v5.4c.1 1-.8 1.9-1.9 1.9zm-6-8.2c-.5 0-.9.4-.9.9v5.4c0 .5.4.9.9.9h6c.5 0 .9-.4.9-.9V28c0-.5-.4-.9-.9-.9h-6zm7.5-2.4c-.1 0-.3 0-.3-.1-.2-.1-.2-.4-.1-.6l3.1-7.2c-1.1-1.7-1.7-3.6-1.7-5.6 0-5.6 4.6-10.1 10.1-10.1s10.1 4.6 10.1 10.1-4.6 10.1-10.1 10.1c-1 0-2-.1-3-.4l-7.9 3.8c-.1-.1-.2 0-.2 0zm11-22.7c-5 0-9.1 4.1-9.1 9.1 0 1.9.6 3.7 1.7 5.3.1.1.1.3.1.5l-2.7 6.2 6.9-3.3c.1-.1.3-.1.4 0 .9.3 1.9.5 2.8.5 5 0 9.1-4.1 9.1-9.1s-4.1-9.2-9.2-9.2zm42.9 39.8h-16.5c-.3 0-.5-.2-.5-.5l-.1-17.3-4.2-.1c-.2 0-.4-.1-.5-.3s0-.4.1-.5l17.1-15.6c.2-.2.5-.2.7 0l5.3 4.8V9.6c0-.3.2-.5.5-.5h5.9c.3 0 .5.2.5.5v8.8l5.1 4.7c.2.1.2.4.1.6-.1.2-.3.3-.5.3h-4.1c-.3 0-.5-.2-.5-.5s.2-.5.5-.5h2.8l-4.4-3.9c-.1-.1-.2-.2-.2-.4v-8.6h-4.9v3.3c0 .2-.1.4-.3.5-.2.1-.4 0-.5-.1l-5.8-5.3-15.9 14.4 3.4.1c.3 0 .5.2.5.5l.1 17.3h16c.3 0 .5.2.5.5.3.2.1.5-.2.5z"/>
  <path class="st0" d="M-271.1 48.4c-.5 0-1-.2-1.4-.6L-285.3 35c-.4-.4-.6-.8-.6-1.4s.2-1 .6-1.4l.5-.5c-.9-1-1.3-2.3-1.3-3.6 0-3.1 2.6-5.7 5.7-5.7 1.3 0 2.6.5 3.6 1.3l.4-.4c.7-.7 2-.7 2.7 0l12.8 12.8c.7.7.7 2 0 2.7l-9 9c-.2.4-.7.6-1.2.6zm-9.2-24.9c-2.6 0-4.7 2.1-4.7 4.7 0 1.2.5 2.4 1.4 3.3.2.2.2.5 0 .7l-.9.9c-.2.2-.3.4-.3.6s.1.5.3.6l12.8 12.8c.2.2.4.3.6.3.2 0 .5-.1.6-.3l9-9c.4-.4.4-.9 0-1.3L-274.3 24c-.4-.4-.9-.4-1.3 0l-.8.8c-.2.2-.5.2-.7 0-.8-.8-2-1.3-3.2-1.3z"/>
  <path class="st0" d="M-281.1 29.9c-1.3 0-2.4-1.1-2.4-2.4s1.1-2.4 2.4-2.4 2.4 1.1 2.4 2.4-1.1 2.4-2.4 2.4zm0-3.7c-.8 0-1.4.6-1.4 1.4s.6 1.4 1.4 1.4 1.4-.6 1.4-1.4-.6-1.4-1.4-1.4z"/>
  <path class="st0" d="M-282.7 26.5c-.1 0-.2 0-.2-.1-.8-.4-8.2-4.1-8.6-6.8-.1-.5.1-1 .4-1.3 0 0 .5-.5 1.3-.4 2 .2 4.5 2.8 7.5 7.8.1.2.1.4-.1.6 0 .1-.1.2-.3.2zm-7.3-7.6c-.3 0-.4.1-.4.1-.1.1-.2.3-.1.5.2 1.3 3.6 3.6 6.5 5.2-3.1-4.6-4.9-5.6-5.7-5.7-.2-.1-.2-.1-.3-.1zm13.7 11.2l-1.1 1.1 1 1 1.1-1.1.6.6-2.8 2.8-.6-.6 1.2-1.2-1-1-1.2 1.2-.6-.6 2.8-2.8.6.6zm2.8 2.8l-1.6 1.6c-.5.5-.5.9-.2 1.2.3.3.7.3 1.2-.2l1.6-1.6.6.6-1.5 1.6c-.9.9-1.7.8-2.4.1-.7-.7-.7-1.5.2-2.4l1.5-1.5.6.6zm2.8 2.8l-1.6 1.6c-.5.5-.5.9-.2 1.2.3.3.7.3 1.2-.2l1.6-1.6.6.6-1.5 1.5c-.9.9-1.7.8-2.4.1-.7-.7-.7-1.5.2-2.4l1.5-1.5.6.7zm2.2 2.2c.2.2.6.4.9.8.4.4.6.8.7 1.1 0 .3-.1.6-.3.8-.3.3-.8.3-1.2.2.1.3 0 .6-.1.9-.2.4-.5.8-.6 1l-.6-.6c0-.1.2-.4.5-.8s.2-.6 0-.9l-.2-.2-1.1 1.1-.6-.6 2.6-2.8zm-.6 1.8l.2.2c.3.3.7.3.9.1.3-.3.2-.6-.1-.8l-.3-.3-.7.8zm63.7-24.8c-.3 0-.5-.2-.5-.5V7.5c0-.3.2-.5.5-.5s.5.2.5.5v6.9c0 .3-.3.5-.5.5zM-226 41.6c-.3 0-.5-.2-.5-.5V17.5c0-.3.2-.5.5-.5s.5.2.5.5v23.6c0 .2-.3.5-.5.5zm5.1 0c-.3 0-.5-.2-.5-.5V17.5c0-.3.2-.5.5-.5s.5.2.5.5v23.6c0 .2-.3.5-.5.5z"/>
  <path class="st0" d="M-221.2 41.6h-4.7c-.2 0-.4-.1-.5-.3-.1-.2 0-.4.1-.5l4.6-4.3-4.6-4.3c-.1-.1-.2-.2-.2-.4 0-.1.1-.3.2-.4l4.6-4.3-4.6-4.3c-.1-.1-.2-.2-.2-.4 0-.1.1-.3.2-.4l5-4.7c.2-.2.5-.2.7 0 .2.2.2.5 0 .7l-4.6 4.3 4.6 4.3c.1.1.2.2.2.4s-.1.3-.2.4l-4.6 4.3 4.6 4.3c.1.1.2.2.2.4 0 .1-.1.3-.2.4l-4.1 3.8h3.5c.3 0 .5.2.5.5 0 .2-.2.5-.5.5zm-13-23.7c-.2 0-.4-.1-.5-.4-.1-.3.1-.5.4-.6l6.4-1.7c.3-.1.5.1.6.4.1.3-.1.5-.4.6l-6.4 1.7h-.1zm15.8-4.1c-.2 0-.4-.1-.5-.4-.1-.3.1-.5.4-.6l18.2-4.8c.3-.1.5.1.6.4.1.3-.1.5-.4.6l-18.2 4.8h-.1z"/>
  <path class="st0" d="M-220.9 18h-5.3c-1.1 0-2-.9-2-2v-3.1c0-1.1.9-2 2-2h5.3c1.1 0 2 .9 2 2V16c0 1.1-.9 2-2 2zm-5.2-6.1c-.5 0-1 .4-1 1V16c0 .5.4 1 1 1h5.3c.5 0 1-.4 1-1v-3.1c0-.5-.4-1-1-1h-5.3z"/>
  <path class="st0" d="M-221.7 11.1c-.2 0-.3-.1-.4-.2l-1.4-2.2-1.4 2.2c-.1.2-.5.3-.7.2-.2-.1-.3-.5-.2-.7l1.8-2.8c.2-.3.7-.3.8 0l1.8 2.8c.1.2.1.5-.2.7h-.1zm32.6 26.3h-19.1c-.3 0-.5-.2-.5-.5l-.1-13-3.1-.1c-.2 0-.4-.1-.5-.3s0-.4.1-.5l13.1-11.9c.2-.2.5-.2.7 0l3.9 3.5v-1.8c0-.3.2-.5.5-.5h4.5c.3 0 .5.2.5.5v6.7l3.9 3.5c.2.1.2.4.1.6-.1.2-.3.3-.5.3h-3.2v13c.2.2-.1.5-.3.5zm-18.6-1h18.1v-13c0-.3.2-.5.5-.5h2.4l-3.1-2.8c-.1-.1-.2-.2-.2-.4v-6.5h-3.5v2.4c0 .2-.1.4-.3.5-.2.1-.4 0-.5-.1l-4.4-4-11.9 10.8 2.4.1c.3 0 .5.2.5.5v13zM-66 41.1h-10.4c-.3 0-.5-.2-.5-.5V16c0-.3.2-.5.5-.5H-66c.3 0 .5.2.5.5v24.6c0 .3-.2.5-.5.5zm-9.9-1h9.4V16.5h-9.4v23.6zm41.1 1h-10.5c-.3 0-.5-.2-.5-.5V24c0-.3.2-.5.5-.5h10.5c.3 0 .5.2.5.5v16.7c0 .2-.2.4-.5.4zm-10-1h9.5V24.5h-9.5v15.6z"/>
  <path class="st0" d="M-45.3 41.1H-66c-.3 0-.5-.2-.5-.5V7c0-.3.2-.5.5-.5h20.6c.3 0 .5.2.5.5v33.7c.1.2-.2.4-.4.4zm-20.2-1h19.6V7.5h-19.6v32.6zm28.8-15.8h-6.7c-.3 0-.5-.2-.5-.5v-2.7c0-.3.2-.5.5-.5h6.7c.3 0 .5.2.5.5v2.7c0 .3-.2.5-.5.5zm-6.2-1h5.7v-1.7h-5.7v1.7z"/>
  <path class="st0" d="M-40.1 21.4c-.3 0-.5-.2-.5-.5v-4.1c0-.3.2-.5.5-.5s.5.2.5.5v4.1c0 .2-.2.5-.5.5zm-2.4 17.7c-.3 0-.5-.2-.5-.5v-13c0-.3.2-.5.5-.5s.5.2.5.5v12.9c0 .3-.2.6-.5.6zm4.8 0c-.3 0-.5-.2-.5-.5v-13c0-.3.2-.5.5-.5s.5.2.5.5v12.9c0 .3-.2.6-.5.6zm-2.4 0c-.3 0-.5-.2-.5-.5V27.2c0-.3.2-.5.5-.5s.5.2.5.5v11.3c0 .3-.2.6-.5.6zm-18.8-23h-3.6c-.3 0-.5-.2-.5-.5v-5.1c0-.3.2-.5.5-.5h3.6c.3 0 .5.2.5.5v5.1c0 .3-.2.5-.5.5zm-3.1-1h2.6V11H-62v4.1zm8.3 1h-3.6c-.3 0-.5-.2-.5-.5v-5.1c0-.3.2-.5.5-.5h3.6c.3 0 .5.2.5.5v5.1c0 .3-.2.5-.5.5zm-3.1-1h2.6V11h-2.6v4.1zm8.3 1h-3.6c-.3 0-.5-.2-.5-.5v-5.1c0-.3.2-.5.5-.5h3.6c.3 0 .5.2.5.5v5.1c0 .3-.2.5-.5.5zm-3.1-1h2.6V11h-2.6v4.1zm-7.3 8h-3.6c-.3 0-.5-.2-.5-.5v-5.1c0-.3.2-.5.5-.5h3.6c.3 0 .5.2.5.5v5.1c0 .3-.2.5-.5.5zm-3.1-1h2.6V18H-62v4.1zm8.3 1h-3.6c-.3 0-.5-.2-.5-.5v-5.1c0-.3.2-.5.5-.5h3.6c.3 0 .5.2.5.5v5.1c0 .3-.2.5-.5.5zm-3.1-1h2.6V18h-2.6v4.1zm8.3 1h-3.6c-.3 0-.5-.2-.5-.5v-5.1c0-.3.2-.5.5-.5h3.6c.3 0 .5.2.5.5v5.1c0 .3-.2.5-.5.5zm-3.1-1h2.6V18h-2.6v4.1zm-7.3 8h-3.6c-.3 0-.5-.2-.5-.5v-5.1c0-.3.2-.5.5-.5h3.6c.3 0 .5.2.5.5v5.1c0 .3-.2.5-.5.5zm-3.1-1h2.6V25H-62v4.1zm8.3 1h-3.6c-.3 0-.5-.2-.5-.5v-5.1c0-.3.2-.5.5-.5h3.6c.3 0 .5.2.5.5v5.1c0 .3-.2.5-.5.5zm-3.1-1h2.6V25h-2.6v4.1zm8.3 1h-3.6c-.3 0-.5-.2-.5-.5v-5.1c0-.3.2-.5.5-.5h3.6c.3 0 .5.2.5.5v5.1c0 .3-.2.5-.5.5zm-3.1-1h2.6V25h-2.6v4.1zm-7.3 8h-3.6c-.3 0-.5-.2-.5-.5v-5.1c0-.3.2-.5.5-.5h3.6c.3 0 .5.2.5.5v5.1c0 .3-.2.5-.5.5zm-3.1-1h2.6V32H-62v4.1zm8.3 1h-3.6c-.3 0-.5-.2-.5-.5v-5.1c0-.3.2-.5.5-.5h3.6c.3 0 .5.2.5.5v5.1c0 .3-.2.5-.5.5zm-3.1-1h2.6V32h-2.6v4.1zm8.3 1h-3.6c-.3 0-.5-.2-.5-.5v-5.1c0-.3.2-.5.5-.5h3.6c.3 0 .5.2.5.5v5.1c0 .3-.2.5-.5.5zm-3.1-1h2.6V32h-2.6v4.1zM-68 19.4h-6c-.3 0-.5-.2-.5-.5s.2-.5.5-.5h6c.3 0 .5.2.5.5s-.3.5-.5.5zm0 2.1h-6c-.3 0-.5-.2-.5-.5s.2-.5.5-.5h6c.3 0 .5.2.5.5s-.3.5-.5.5zm0 17.1h-6c-.3 0-.5-.2-.5-.5s.2-.5.5-.5h6c.3 0 .5.2.5.5s-.3.5-.5.5zm0-14.9h-6c-.3 0-.5-.2-.5-.5s.2-.5.5-.5h6c.3 0 .5.2.5.5s-.3.5-.5.5zm0 2.1h-6c-.3 0-.5-.2-.5-.5s.2-.5.5-.5h6c.3 0 .5.2.5.5s-.3.5-.5.5zm0 10.7h-6c-.3 0-.5-.2-.5-.5s.2-.5.5-.5h6c.3 0 .5.2.5.5s-.3.5-.5.5zm0-2.2h-6c-.3 0-.5-.2-.5-.5s.2-.5.5-.5h6c.3 0 .5.2.5.5s-.3.5-.5.5zm0-2.1h-6c-.3 0-.5-.2-.5-.5s.2-.5.5-.5h6c.3 0 .5.2.5.5s-.3.5-.5.5zm0-2.1h-6c-.3 0-.5-.2-.5-.5s.2-.5.5-.5h6c.3 0 .5.2.5.5s-.3.5-.5.5zm0-2.2h-6c-.3 0-.5-.2-.5-.5s.2-.5.5-.5h6c.3 0 .5.2.5.5s-.3.5-.5.5zm-59.8 2.7c-.2 0-.3-.1-.4-.2-.3-.4-8-10.6-8-14.9 0-4.5 3.8-8.1 8.4-8.1s8.4 3.6 8.4 8.1c0 4.3-7.7 14.5-8 14.9-.1.1-.3.2-.4.2zm0-22.2c-4.1 0-7.4 3.2-7.4 7.1 0 3.4 5.8 11.6 7.4 13.7 1.6-2.2 7.4-10.3 7.4-13.7 0-3.9-3.3-7.1-7.4-7.1z"/>
  <path class="st0" d="M-127.8 19.9c-2.1 0-3.8-1.7-3.8-3.8s1.7-3.8 3.8-3.8c2.1 0 3.8 1.7 3.8 3.8s-1.7 3.8-3.8 3.8zm0-6.6c-1.6 0-2.8 1.3-2.8 2.8s1.3 2.8 2.8 2.8 2.8-1.3 2.8-2.8-1.3-2.8-2.8-2.8zm17.4 26.8h-34.7c-.2 0-.3-.1-.4-.2-.1-.1-.1-.3-.1-.4l4.1-14.5c.1-.2.3-.4.5-.4h6.5c.3 0 .5.2.5.5s-.2.5-.5.5h-6.2l-3.8 13.5h33.3l-4.1-13.5h-5.9c-.3 0-.5-.2-.5-.5s.2-.5.5-.5h6.2c.2 0 .4.1.5.4l4.4 14.5c0 .2 0 .3-.1.4.1.2-.1.2-.2.2zm116 3.4H1.7C.8 43.5 0 42.8 0 42v-9.8c0-.9.8-1.6 1.7-1.6h3.9c.9 0 1.7.7 1.7 1.6V42c0 .8-.8 1.5-1.7 1.5zM1.7 31.4c-.5 0-.8.3-.8.7V42c0 .4.4.7.8.7h3.9c.5 0 .8-.3.8-.7v-9.8c0-.4-.4-.7-.8-.7H1.7z"/>
  <path class="st0" d="M7.9 42.6c-.9 0-1.6-.8-1.6-1.8 0-.2.2-.4.4-.4s.4.2.4.4c0 .5.3 1 .7 1h17.8c1.5 0 3.7-.9 4.8-2l6.8-6.8c.3-.3.5-.8.5-1.2 0-.5-.2-.9-.5-1.2l-.4-.4c-.7-.7-1.8-.7-2.5 0l-4.7 4.7c-.9.9-2.7 1.7-4 1.7H16c-.2 0-.4-.2-.4-.4s.2-.4.4-.4h9.7c1.1 0 2.6-.6 3.4-1.4l4.7-4.7c1-1 2.7-1 3.7 0l.4.4c.5.5.8 1.1.8 1.8s-.3 1.3-.8 1.8l-6.8 6.8c-1.2 1.2-3.7 2.2-5.4 2.2l-17.8-.1z"/>
  <path class="st0" d="M20.7 36.5c-.2 0-.4-.2-.4-.4s.2-.4.4-.4c.6 0 1.1-.5 1.1-1.1v-1c0-.6-.5-1.1-1.1-1.1H6.8c-.2 0-.4-.2-.4-.4s.2-.4.4-.4h13.9c1.1 0 2 .9 2 2v1c0 .9-.9 1.8-2 1.8zm8.1-6.7H9.7c-.3 0-.5-.2-.5-.5l-.1-13-3.1-.1c-.2 0-.4-.1-.5-.3-.1-.2 0-.4.1-.5l13.2-12c.2-.2.5-.2.7 0l3.9 3.5V5.1c0-.3.2-.5.5-.5h4.5c.3 0 .5.2.5.5v6.7l3.9 3.5c.2.1.2.4.1.6-.1.2-.3.3-.5.3h-3.2v13c.1.4-.2.6-.4.6zm-18.6-1h18.1v-13c0-.3.2-.5.5-.5h2.4L28 12.4c-.1-.1-.2-.2-.2-.4V5.6h-3.5V8c0 .2-.1.4-.3.5-.2.1-.4 0-.5-.1l-4.4-4L7.3 15.2l2.4.1c.3 0 .5.2.5.5v13zM-59.3 7.5c-.1 0-.3 0-.3-.1l-5.9-5.6v5.3c0 .3-.2.5-.5.5s-.5-.2-.5-.5V.6c0-.2.1-.4.3-.5.2-.1.4 0 .5.1l5.9 5.6V.5c0-.2.1-.4.3-.5.2-.1.4 0 .5.1l5.8 5.6V.4c0-.2.1-.4.3-.5.2-.1.4 0 .5.1l7.3 6.4c.2.2.2.5 0 .7-.2.2-.5.2-.7 0l-6.5-5.7v5.3c0 .2-.1.4-.3.5-.2.1-.4 0-.5-.1l-5.8-5.6V7c0 .2-.1.4-.3.5h-.1z"/>
  <path class="st0" d="M21 14.5h-.2c-.3-.1-.4-.4-.2-.7l.4-.9-.3.1c-.1 0-.3 0-.4-.1-.2-.1-.7-.4-1.1-.4-.5 0-1 .3-1.2.4-.1.1-.3.1-.4.1l-.2-.1.4.8c.1.2 0 .5-.2.7-.2.1-.5 0-.7-.2l-.9-1.9c-.1-.2-.1-.4.1-.5.1-.2.3-.2.5-.2l1.1.3c.3-.2.9-.4 1.5-.4s1.2.3 1.5.4l1.1-.3c.2-.1.4 0 .5.2.1.1.2.4.1.5l-.9 1.9c-.1.2-.3.3-.5.3z"/>
  <path class="st0" d="M19.1 26.2h-.3c-1.2-.1-4.9-1.2-5.3-5-.4-3.7 3.5-6.9 3.7-7.1l.1-.1h3.8l.1.1c.2.1 4.5 2.7 3.8 7.2-.6 3.9-4 4.9-5.9 4.9zM17.6 15c-.6.6-3.4 3.2-3.2 6.1.3 3.1 3.3 4 4.3 4.1 0 0 4.6.2 5.2-4.1.5-3.5-2.6-5.7-3.2-6.1h-3.1z"/>
  <path class="st0" d="M18.5 21c.1.8.3 1.3.8 1.3.2 0 .3 0 .5-.1.1-.1.3-.3.4-.6.1-.2.2-.3.2-.4.1 0 .1-.1.2-.1s.2 0 .3.1c.1.1.1.2.1.3 0 .3-.2.7-.5 1-.3.3-.7.4-1.2.4-.4 0-.8-.2-1.2-.5-.3-.3-.5-.8-.6-1.5h-.4s-.1 0-.1-.1 0-.1.1-.2c0-.1.1-.1.1-.1h.3V20h-.4s-.1 0-.1-.1 0-.1.1-.2c0-.1.1-.1.1-.1h.3c.2-1.2.7-1.8 1.7-1.8.4 0 .8.1 1.1.3.3.2.5.5.5.8 0 .1 0 .2-.1.3-.1.1-.2.1-.3.1-.1 0-.2 0-.3-.1-.1-.1-.1-.2-.2-.3-.1-.2-.1-.3-.2-.4-.1-.1-.3-.1-.5-.1-.3 0-.5.1-.6.3-.1.2-.2.5-.3.8h1.1s.1 0 .1.1 0 .1-.1.2c0 .1-.1.1-.1.1h-1v.5h1.2s.1 0 .1.1 0 .1-.1.2c0 .1-.1.1-.1.1h-.9zm-346-9.3l-.1.2c-.1.1-.1.2-.1.3v.1h.7s.1 0 .1.1c.1 1.1.4 1.9 1 2.4.5.5 1.2.8 1.9.8.8 0 1.4-.2 2-.7.5-.5.8-1 .8-1.5 0-.2-.1-.4-.2-.5-.1-.1-.3-.2-.5-.2-.1 0-.2 0-.3.1-.1 0-.2.2-.3.6-.2.5-.5.8-.7 1-.2.1-.5.2-.8.2-.8 0-1.3-.7-1.4-2.2v-.1c0-.1 0 0 .1 0h1.7l.1-.2c.1-.1.1-.2.1-.3v-.1h-1.9s-.1 0-.1-.1v-1s0-.1.1-.1h1.7l.1-.2c.1-.1.1-.2.1-.3v-.1h-2c-.1 0 0 0 0-.1.1-.6.2-1.1.5-1.4.2-.3.6-.5 1.1-.5.4 0 .7.1.8.2.2.2.3.4.4.7.1.2.2.4.3.4.1.1.2.1.4.1s.3-.1.4-.2c.1-.1.2-.3.2-.4 0-.5-.2-1-.8-1.3-.5-.4-1.1-.6-1.9-.6-1.6 0-2.6 1-2.8 3 0 0 0 .1-.1.1h-.6l-.1.2c-.1.1-.1.3-.1.3v.1h.8c.1 0 0 0 0 .1v.9s0 .1-.1.1h-.5z"/>
</svg>