<?xml version="1.0" encoding="utf-8"?>
<!-- Generator: Adobe Illustrator 16.0.3, SVG Export Plug-In . SVG Version: 6.00 Build 0)  -->
<!DOCTYPE svg PUBLIC "-//W3C//DTD SVG 1.1//EN" "http://www.w3.org/Graphics/SVG/1.1/DTD/svg11.dtd">
<svg version="1.1" id="Layer_1" xmlns="http://www.w3.org/2000/svg" xmlns:xlink="http://www.w3.org/1999/xlink" x="0px" y="0px"
	 width="339.25px" height="340px" viewBox="343.25 198.5 339.25 340" enable-background="new 343.25 198.5 339.25 340"
	 xml:space="preserve">
<rect x="128" fill="#FFFFFF" width="768" height="768"/>
<g>
	<g>
		<defs>
			<rect id="SVGID_1_" x="128" width="768" height="768"/>
		</defs>
		<clipPath id="SVGID_2_">
			<use xlink:href="#SVGID_1_"  overflow="visible"/>
		</clipPath>
		<path clip-path="url(#SVGID_2_)" fill="#00529B" d="M680.96,466.944c0,6.144-1.536,10.752-4.608,13.823l-47.615,46.08
			c-1.536,3.072-4.608,4.608-7.681,6.145c-3.071,1.536-6.144,3.072-10.752,3.072h-1.536c-1.535,0-3.071,0-4.607,0
			c-4.608,0-12.288-1.536-21.504-3.072c-10.752-1.536-23.04-4.608-36.864-10.752c-15.36-6.145-30.72-15.36-49.152-27.648
			c-18.432-12.288-38.399-29.184-59.903-49.151c-16.896-16.896-30.721-32.257-41.472-46.08
			c-10.752-15.36-19.968-29.185-26.112-41.473s-12.288-24.576-15.36-33.792c-3.072-10.752-6.144-18.432-6.144-26.112
			c-4.608-7.68-4.608-13.824-4.608-18.432c0-4.608,0-6.144,0-7.68c0-3.072,1.536-6.144,3.072-10.752
			c1.536-3.072,3.072-6.144,6.144-7.68l47.616-47.616c3.072-3.072,7.68-4.608,10.752-4.608s6.144,1.536,7.68,3.072
			c3.072,1.536,4.608,4.608,6.145,6.144l38.399,72.192c1.536,3.072,3.072,7.68,1.536,12.288c-1.536,4.608-3.071,7.68-6.144,10.752
			l-16.896,16.896l-1.536,1.536c0,1.536,0,1.536,0,3.072c1.536,4.608,3.072,10.752,6.145,16.896
			c3.072,6.144,7.68,12.287,13.824,21.504c6.144,7.68,13.823,16.896,26.111,27.647c10.752,10.752,19.968,19.968,29.185,26.112
			c7.68,6.144,15.359,10.752,21.504,13.824c6.144,3.071,9.216,4.607,12.288,4.607l4.607,1.536c0,0,1.536,0,3.072,0
			s1.536,0,3.072-1.536l19.968-19.968c4.608-3.072,9.216-6.144,15.36-6.144c4.607,0,7.68,0,9.216,1.535l0,0l69.12,39.937
			C676.352,457.728,679.424,462.336,680.96,466.944"/>
	</g>
</g>
</svg>
