<svg version="1.1" id="Layer_1" xmlns="http://www.w3.org/2000/svg" xmlns:xlink="http://www.w3.org/1999/xlink" x="0px" y="0px"
	 viewBox="0 0 339.2 340" style="enable-background:new 0 0 339.2 340;" xml:space="preserve">
<style type="text/css">
	.st0{fill:none;}
	.st1{fill:currentColor}
</style>
<rect x="-215.2" y="-198.5" class="st0" width="768" height="768"/>
<path class="st1" d="M337.7,268.4c0,6.1-1.5,10.8-4.6,13.8l-47.6,46.1c-1.5,3.1-4.6,4.6-7.7,6.1c-3.1,1.5-6.1,3.1-10.8,3.1h-6.1
	c-4.6,0-12.3-1.5-21.5-3.1c-10.8-1.5-23-4.6-36.9-10.8c-15.4-6.1-30.7-15.4-49.2-27.6c-18.4-12.3-38.4-29.2-59.9-49.2
	C76.6,230,62.8,214.7,52,200.9c-10.8-15.4-20-29.2-26.1-41.5s-12.3-24.6-15.4-33.8c-3.1-10.8-6.1-18.4-6.1-26.1
	c-4.6-7.7-4.6-13.8-4.6-18.4v-7.7c0-3.1,1.5-6.1,3.1-10.8c1.5-3.1,3.1-6.1,6.1-7.7L56.6,7.3c3.1-3.1,7.7-4.6,10.8-4.6
	s6.1,1.5,7.7,3.1c3.1,1.5,4.6,4.6,6.1,6.1l38.4,72.2c1.5,3.1,3.1,7.7,1.5,12.3c-1.5,4.6-3.1,7.7-6.1,10.8l-16.9,16.9l-1.5,1.5v3.1
	c1.5,4.6,3.1,10.8,6.1,16.9c3.1,6.1,7.7,12.3,13.8,21.5c6.1,7.7,13.8,16.9,26.1,27.6c10.8,10.8,20,20,29.2,26.1
	c7.7,6.1,15.4,10.8,21.5,13.8c6.1,3.1,9.2,4.6,12.3,4.6l4.6,1.5h3.1c1.5,0,1.5,0,3.1-1.5l20-20c4.6-3.1,9.2-6.1,15.4-6.1
	c4.6,0,7.7,0,9.2,1.5l69.1,39.9C333.1,259.2,336.2,263.8,337.7,268.4"/>
</svg>
