<?xml version="1.0" encoding="utf-8"?>
<!-- Generator: Adobe Illustrator 25.2.1, SVG Export Plug-In . SVG Version: 6.00 Build 0)  -->
<svg version="1.1" id="Layer_1" xmlns="http://www.w3.org/2000/svg" xmlns:xlink="http://www.w3.org/1999/xlink" x="0px" y="0px"
	 viewBox="0 0 56.7 56.7" style="enable-background:new 0 0 56.7 56.7;" xml:space="preserve">
<g>
	<path d="M30.5,25.6L30.5,25.6C30.5,25.5,30.4,25.5,30.5,25.6L30.5,25.6z"/>
	<path d="M52.3,0h-48C2,0,0.2,1.8,0.2,4.1v48.6c0,2.2,1.9,4.1,4.2,4.1h48c2.3,0,4.2-1.8,4.2-4.1V4.1C56.5,1.8,54.6,0,52.3,0z
		 M17.3,47.5H8.7V21.9h8.5V47.5z M13,18.4L13,18.4c-2.9,0-4.8-2-4.8-4.4c0-2.5,1.9-4.4,4.8-4.4c2.9,0,4.7,1.9,4.8,4.4
		C17.8,16.4,16,18.4,13,18.4z M47.9,47.5h-8.5V33.8c0-3.4-1.2-5.8-4.3-5.8c-2.4,0-3.8,1.6-4.4,3.1c-0.2,0.5-0.3,1.3-0.3,2.1v14.3H22
		c0,0,0.1-23.2,0-25.6h8.5v3.6c1.1-1.7,3.2-4.2,7.7-4.2c5.6,0,9.8,3.7,9.8,11.5L47.9,47.5L47.9,47.5z"/>
</g>
</svg>
