<?xml version="1.0" encoding="utf-8"?>
<!-- Generator: Adobe Illustrator 25.2.1, SVG Export Plug-In . SVG Version: 6.00 Build 0)  -->
<svg version="1.1" id="Layer_1" xmlns="http://www.w3.org/2000/svg" xmlns:xlink="http://www.w3.org/1999/xlink" x="0px" y="0px"
	 viewBox="0 0 489 332.3" style="enable-background:new 0 0 489 332.3;" xml:space="preserve">
<style type="text/css">
	.st0{fill:#2997B8;}
</style>
<path class="st0" d="M442,7.4L184.4,265L50,130.6v0c-5.2-5.4-12.4-8.5-19.9-8.5c-7.5-0.1-14.7,2.9-20,8.2c-5.3,5.3-8.3,12.5-8.2,20
	c0.1,7.5,3.1,14.7,8.5,19.9l154.4,153.9c5.2,5.2,12.4,8.2,19.8,8.2c7.4,0,14.5-2.9,19.8-8.2L481.6,46.9h0c6.6-7.2,9-17.2,6.3-26.6
	c-2.7-9.4-10-16.7-19.3-19.3C459.2-1.6,449.1,0.8,442,7.4L442,7.4z"/>
</svg>
