<?xml version="1.0" encoding="utf-8"?>
<!-- Generator: Adobe Illustrator 21.1.0, SVG Export Plug-In . SVG Version: 6.00 Build 0)  -->
<svg version="1.1" id="Layer_1" xmlns="http://www.w3.org/2000/svg" xmlns:xlink="http://www.w3.org/1999/xlink" x="0px" y="0px"
	 viewBox="0 0 50 50" style="enable-background:new 0 0 50 50;" xml:space="preserve">
<style type="text/css">
	.st0{fill:#FFFFFF;}
	.st1{clip-path:url(#SVGID_2_);fill:#00529B;}
</style>
<rect class="st0" width="50" height="50"/>
<g>
	<defs>
		<rect id="SVGID_1_" width="50" height="50"/>
	</defs>
	<clipPath id="SVGID_2_">
		<use xlink:href="#SVGID_1_"  style="overflow:visible;"/>
	</clipPath>
	<path class="st1" d="M36,30.4c0,0.4-0.1,0.7-0.3,0.9l-3.1,3c-0.1,0.2-0.3,0.3-0.5,0.4c-0.2,0.1-0.4,0.2-0.7,0.2c0,0-0.1,0-0.1,0
		c-0.1,0-0.2,0-0.3,0c-0.3,0-0.8-0.1-1.4-0.2c-0.7-0.1-1.5-0.3-2.4-0.7c-1-0.4-2-1-3.2-1.8c-1.2-0.8-2.5-1.9-3.9-3.2
		c-1.1-1.1-2-2.1-2.7-3c-0.7-1-1.3-1.9-1.7-2.7c-0.4-0.8-0.8-1.6-1-2.2c-0.2-0.7-0.4-1.2-0.4-1.7C14,18.9,14,18.5,14,18.2
		c0-0.3,0-0.4,0-0.5c0-0.2,0.1-0.4,0.2-0.7c0.1-0.2,0.2-0.4,0.4-0.5l3.1-3.1c0.2-0.2,0.5-0.3,0.7-0.3c0.2,0,0.4,0.1,0.5,0.2
		c0.2,0.1,0.3,0.3,0.4,0.4l2.5,4.7c0.1,0.2,0.2,0.5,0.1,0.8c-0.1,0.3-0.2,0.5-0.4,0.7l-1.1,1.1c0,0-0.1,0.1-0.1,0.1
		c0,0.1,0,0.1,0,0.2c0.1,0.3,0.2,0.7,0.4,1.1c0.2,0.4,0.5,0.8,0.9,1.4c0.4,0.5,0.9,1.1,1.7,1.8c0.7,0.7,1.3,1.3,1.9,1.7
		c0.5,0.4,1,0.7,1.4,0.9c0.4,0.2,0.6,0.3,0.8,0.3l0.3,0.1c0,0,0.1,0,0.2,0c0.1,0,0.1,0,0.2-0.1l1.3-1.3c0.3-0.2,0.6-0.4,1-0.4
		c0.3,0,0.5,0,0.6,0.1h0l4.5,2.6C35.7,29.8,35.9,30.1,36,30.4"/>
</g>
</svg>
