<svg version="1.1" id="Layer_1" xmlns="http://www.w3.org/2000/svg" xmlns:xlink="http://www.w3.org/1999/xlink" x="0px" y="0px"
	 viewBox="0 0 100 100" style="enable-background:new 0 0 100 100;" xml:space="preserve">
<style type="text/css">
	.st0{fill:#FFFFFF;}
	.st1{fill:#FFFFFF;}
	.st2{fill:#FFFFFF;}
</style>
<path class="st0" d="M100.3,48.3c-15.9-16-31.8-31.9-47.6-47.8c15.6,0,31.5,0,47.4,0C100.5,1.7,100.7,45.4,100.3,48.3z"/>
<path class="st0" d="M0.7,51.7c15.9,16,31.8,32,47.7,47.9c-15.8,0-31.6,0-47.5,0C0.5,98.4,0.4,53.9,0.7,51.7z"/>
<path class="st0" d="M7,6.7c12.4,0,24.7,0,37,0c3.1,3.2,6.2,6.3,9.4,9.6c-12.2,0-24.4,0-36.8,0c0,12.3,0,24.4,0,36.3
	c-3.1-3.1-6.2-6.2-9.6-9.6C7,31.3,7,19,7,6.7z"/>
<path class="st0" d="M57.2,93.5c-3.2-2.7-6.2-5.7-9-8.8c0.5-0.8,1.3-0.5,1.9-0.5c10.8,0,21.5,0,32.3,0c0.6,0,1.2,0.2,1.7-0.2
	c0.4-0.7,0.3-1.5,0.3-2.2c0-10.8,0-21.7,0-32.5c0-0.6-0.1-1.3,0.3-2.2c3.1,3.2,6.3,6.1,9.2,9.3c-0.1,12.2,0,24.5-0.1,37
	C81.5,93.5,69.3,93.4,57.2,93.5z"/>
<path class="st1" d="M57.2,93.5c0.7-0.5,1.4-0.4,2.2-0.4c10.6,0,21.2,0,31.7,0c0.7,0,1.4,0.1,2.1-0.2c0.5-0.6,0.3-1.3,0.3-2
	c0-10.7,0-21.5,0-32.2c0-0.7-0.2-1.5,0.3-2.2l0,0c0.2,0.4,0.1,0.8,0.1,1.3c0,11.5,0,23,0,34.5c0,0.4,0.1,0.9-0.1,1.3
	c-0.6,0.3-1.2,0.2-1.7,0.2c-11.1,0-22.1,0-33.2,0C58.4,93.7,57.8,93.8,57.2,93.5z"/>
<path class="st2" d="M84.2,84c-0.7,0.5-1.4,0.3-2.2,0.3c-10.5,0-20.9,0-31.4,0c-0.8,0-1.6-0.1-2.4,0.3c-0.2-0.1-0.4-0.2-0.3-0.7
	C60,84,72.1,84,84.2,84z"/>
<path class="st0" d="M93.9,93.5c0-12.3,0-24.7,0-37c0.4,0.5,0.3,1.1,0.3,1.7c0,11.2,0,22.4,0,33.6C94.2,92.4,94.3,93,93.9,93.5z"/>
</svg>
