<svg xmlns="http://www.w3.org/2000/svg" xmlns:xlink="http://www.w3.org/1999/xlink" width="339.25" height="340" viewBox="343.25 198.5 339.25 340">
  <path fill="#FFF" d="M128 0h768v768H128z"/>
  <defs>
    <path id="a" d="M128 0h768v768H128z"/>
  </defs>
  <clipPath id="b">
    <use xlink:href="#a" overflow="visible"/>
  </clipPath>
  <path clip-path="url(#b)" fill="#003064" d="M680.96 466.944c0 6.144-1.536 10.752-4.608 13.823l-47.615 46.08c-1.536 3.072-4.608 4.608-7.681 6.145-3.071 1.536-6.144 3.072-10.752 3.072H604.161c-4.608 0-12.288-1.536-21.504-3.072-10.752-1.536-23.04-4.608-36.864-10.752-15.36-6.145-30.72-15.36-49.152-27.648-18.432-12.288-38.399-29.184-59.903-49.151-16.896-16.896-30.721-32.257-41.472-46.08-10.752-15.36-19.968-29.185-26.112-41.473s-12.288-24.576-15.36-33.792c-3.072-10.752-6.144-18.432-6.144-26.112-4.608-7.68-4.608-13.824-4.608-18.432v-7.68c0-3.072 1.536-6.144 3.072-10.752 1.536-3.072 3.072-6.144 6.144-7.68l47.616-47.616c3.072-3.072 7.68-4.608 10.752-4.608s6.144 1.536 7.68 3.072c3.072 1.536 4.608 4.608 6.145 6.144l38.399 72.192c1.536 3.072 3.072 7.68 1.536 12.288-1.536 4.608-3.071 7.68-6.144 10.752l-16.896 16.896-1.536 1.536v3.072c1.536 4.608 3.072 10.752 6.145 16.896 3.072 6.144 7.68 12.287 13.824 21.504 6.144 7.68 13.823 16.896 26.111 27.647 10.752 10.752 19.968 19.968 29.185 26.112 7.68 6.144 15.359 10.752 21.504 13.824 6.144 3.071 9.216 4.607 12.288 4.607l4.607 1.536h3.072c1.536 0 1.536 0 3.072-1.536l19.968-19.968c4.608-3.072 9.216-6.144 15.36-6.144 4.607 0 7.68 0 9.216 1.535l69.12 39.937c3.07 4.61 6.142 9.218 7.678 13.826"/>
</svg>