<?xml version="1.0" encoding="utf-8"?>
<!-- Generator: Adobe Illustrator 25.2.1, SVG Export Plug-In . SVG Version: 6.00 Build 0)  -->
<svg version="1.1" xmlns="http://www.w3.org/2000/svg" xmlns:xlink="http://www.w3.org/1999/xlink" x="0px" y="0px"
	 viewBox="0 0 422.3 637.7" style="enable-background:new 0 0 422.3 637.7;" xml:space="preserve">
<style type="text/css">
	.st0{opacity:0.2;fill:#3096B8;}
	.st1{display:none;}
	.st2{display:inline;}
</style>
<g id="Laag_2">
	<polygon class="st0" points="422.3,0 295.5,126.9 295.4,126.9 164.1,126.9 164.1,258.2 295.4,258.2 295.4,389.5 164.1,389.5 
		164.1,637.7 0,637.7 0,0 	"/>
</g>
<g id="Laag_3" class="st1">
	<g class="st2">
		<text transform="matrix(1 0 0 1 -2173.064 277.95)"><tspan x="0" y="0" style="fill:#FFFFFF; font-family:'Poppins-Regular'; font-size:16.3254px;">aanbod</tspan><tspan x="0" y="32" style="fill:#FFFFFF; font-family:'Poppins-Regular'; font-size:16.3254px;">over ons</tspan><tspan x="0" y="64" style="fill:#FFFFFF; font-family:'Poppins-Regular'; font-size:16.3254px;">diensten</tspan><tspan x="0" y="96" style="fill:#FFFFFF; font-family:'Poppins-Regular'; font-size:16.3254px;">hypotheekadvies</tspan><tspan x="0" y="128" style="fill:#FFFFFF; font-family:'Poppins-Regular'; font-size:16.3254px;">actualiteiten</tspan><tspan x="0" y="160" style="fill:#FFFFFF; font-family:'Poppins-Regular'; font-size:16.3254px;">contact</tspan></text>
		<text transform="matrix(1 0 0 1 -2173.0645 239.1947)" style="fill:#FFFFFF; font-family:'Poppins-Bold'; font-size:24.4881px;">navigatie</text>
	</g>
	<g class="st2">
		<text transform="matrix(1 0 0 1 -1857.9877 239.1947)" style="fill:#FFFFFF; font-family:'Poppins-Bold'; font-size:24.4881px;">Aanbod</text>
		<text transform="matrix(1 0 0 1 -1857.9877 277.95)"><tspan x="0" y="0" style="fill:#FFFFFF; font-family:'Poppins-Regular'; font-size:16.3254px;">koopwoningen</tspan><tspan x="0" y="32" style="fill:#FFFFFF; font-family:'Poppins-Regular'; font-size:16.3254px;">huurwoningen</tspan><tspan x="0" y="64" style="fill:#FFFFFF; font-family:'Poppins-Regular'; font-size:16.3254px;">nieuwbouw</tspan><tspan x="0" y="96" style="fill:#FFFFFF; font-family:'Poppins-Regular'; font-size:16.3254px;">bouwkavels</tspan><tspan x="0" y="128" style="fill:#FFFFFF; font-family:'Poppins-Regular'; font-size:16.3254px;">bedrijfspanden</tspan><tspan x="0" y="160" style="fill:#FFFFFF; font-family:'Poppins-Regular'; font-size:16.3254px;">hypotheken</tspan></text>
	</g>
	
		<text transform="matrix(1 0 0 1 -1543.5927 239.1947)" style="display:inline;fill:#FFFFFF; font-family:'Poppins-Bold'; font-size:24.4881px;">(0475) 335225</text>
	<g class="st2">
		<text transform="matrix(1 0 0 1 -1540.4891 277.5772)"><tspan x="0" y="0" style="fill:#FFFFFF; font-family:'Poppins-Regular'; font-size:16.3254px;">info@jackfrenken.nl</tspan><tspan x="0" y="43" style="fill:#FFFFFF; font-family:'Poppins-Bold'; font-size:14px;">Roermond</tspan><tspan x="0" y="60" style="fill:#FFFFFF; font-family:'Poppins-Regular'; font-size:14px;">Graaf Reinaldstraat 1, 6041 XB</tspan><tspan x="0" y="94" style="fill:#FFFFFF; font-family:'Poppins-Bold'; font-size:14px;">Echt</tspan><tspan x="0" y="111" style="fill:#FFFFFF; font-family:'Poppins-Regular'; font-size:14px;">Gelrestraat 18, 6101 EW</tspan></text>
	</g>
	
		<text transform="matrix(1 0 0 1 -1698.8925 582.245)" style="display:inline;fill:#FFFFFF; font-family:'Barlow-Light'; font-size:15.9551px;">Algemene voorwaarden</text>
	
		<text transform="matrix(1 0 0 1 -1483.891 582.2449)" style="display:inline;fill:#FFFFFF; font-family:'Barlow-Light'; font-size:15.9551px;">Colofon</text>
	
		<text transform="matrix(1 0 0 1 -1377.702 582.245)" style="display:inline;fill:#FFFFFF; font-family:'Barlow-Light'; font-size:15.9551px;">Privacy</text>
	
		<text transform="matrix(1 0 0 1 -1273.7274 582.245)" style="display:inline;fill:#FFFFFF; font-family:'Barlow-Light'; font-size:15.9551px;">Cookies</text>
	
		<text transform="matrix(1 0 0 1 -1165.9843 582.245)" style="display:inline;fill:#FFFFFF; font-family:'Barlow-Light'; font-size:15.9551px;">Disclaimer</text>
	
		<text transform="matrix(1 0 0 1 -2250.7314 582.245)" style="display:inline;fill:#FFFFFF; font-family:'Barlow-Light'; font-size:15.9551px;">2022©  Jack Frenken Makelaars en Adviseurs</text>
</g>
</svg>
