<?xml version="1.0" encoding="utf-8"?>
<!-- Generator: Adobe Illustrator 21.1.0, SVG Export Plug-In . SVG Version: 6.00 Build 0)  -->
<svg version="1.1" xmlns="http://www.w3.org/2000/svg" xmlns:xlink="http://www.w3.org/1999/xlink" x="0px" y="0px"
	 viewBox="0 0 32 32" style="enable-background:new 0 0 32 32;" xml:space="preserve">
<style type="text/css">
	.st0{fill:#FFFFFF;}
</style>
<g id="Layer_1">
</g>
<g id="Layer_2">
	<path class="st0" d="M0,0v32h32V0H0z M12.7,22.5H9.3V12.4h3.4V22.5z M11,11L11,11c-1.2,0-1.9-0.8-1.9-1.8c0-1,0.8-1.8,1.9-1.8
		c1.2,0,1.9,0.8,1.9,1.8C12.9,10.2,12.2,11,11,11z M24.9,22.5l-3.4,0v-5.4c0-1.4-0.5-2.3-1.7-2.3c-0.9,0-1.5,0.6-1.7,1.2
		c-0.1,0.2-0.1,0.5-0.1,0.8v5.7h-3.4c0,0,0-9.2,0-10.2h3.4v1.4c0.4-0.7,1.3-1.7,3-1.7c2.2,0,3.9,1.5,3.9,4.6V22.5z"/>
</g>
</svg>
