<?xml version="1.0" encoding="utf-8"?>
<!-- Generator: Adobe Illustrator 21.1.0, SVG Export Plug-In . SVG Version: 6.00 Build 0)  -->
<svg version="1.1" id="Layer_1" xmlns="http://www.w3.org/2000/svg" xmlns:xlink="http://www.w3.org/1999/xlink" x="0px" y="0px"
	 viewBox="0 0 172.9 117.2" style="enable-background:new 0 0 172.9 117.2;" xml:space="preserve">
<style type="text/css">
	.st0{fill:#00519C;}
	.st1{fill:#1A171B;}
	.st2{fill:#0092D1;}
	.st3{clip-path:url(#SVGID_2_);}
	.st4{fill:#FFFFFF;}
	.st5{fill:#003064;}
</style>
<g>
	<g>
		<g>
			<path class="st0" d="M41.1,117.2v-3.7c0-0.9-0.5-1.3-1.3-1.3c-0.6,0-1.2,0.4-1.2,1.2v3.8H38v-3.8c0-0.8-0.6-1.2-1.2-1.2
				c-0.5,0-1.1,0.3-1.3,0.7v4.3h-0.6v-5.4l0.4,0l0.1,0.7h0c0.3-0.4,0.8-0.7,1.4-0.7c0.8,0,1.3,0.3,1.5,0.9h0
				c0.3-0.6,0.8-0.9,1.5-0.9c1,0,1.7,0.6,1.7,1.8v3.7L41.1,117.2L41.1,117.2z"/>
			<path class="st0" d="M46.4,116.4L46.4,116.4c-0.3,0.5-1,0.8-1.7,0.8c-1,0-1.7-0.5-1.7-1.7c0-1,0.6-1.6,2-1.6c0.5,0,1,0.1,1.4,0.2
				v-0.7c0-1-0.4-1.4-1.4-1.4c-0.6,0-1.1,0.1-1.5,0.3l-0.1-0.5c0.5-0.2,1.1-0.4,1.7-0.4c1.3,0,1.9,0.5,1.9,2v3.6h-0.4L46.4,116.4z
				 M46.4,114.6c-0.1-0.1-0.6-0.3-1.3-0.3c-1.1,0-1.5,0.4-1.5,1.2c0,0.9,0.6,1.2,1.3,1.2c0.8,0,1.5-0.6,1.5-1.1
				C46.4,115.7,46.4,114.6,46.4,114.6z"/>
			<path class="st0" d="M49.2,114H50l1.9-2.3h0.7l-2.1,2.5l2.2,3H52l-2-2.7h-0.9v2.7h-0.6v-7.3l0.6,0C49.2,109.8,49.2,114,49.2,114z
				"/>
			<path class="st0" d="M53.4,114.3c0-1.7,0.7-2.6,2.2-2.6c1.2,0,2.1,0.7,2.1,2.5c0,0.1,0,0.2,0,0.3h-3.7c0,1.7,0.6,2.3,1.9,2.3
				c0.6,0,1-0.1,1.5-0.4l0.1,0.5c-0.5,0.3-1,0.4-1.6,0.4C54.1,117.3,53.4,116.4,53.4,114.3z M57.1,114c0-1.4-0.7-1.9-1.6-1.9
				c-1.1,0-1.5,0.6-1.6,1.9H57.1z"/>
			<path class="st0" d="M59.2,117.2v-7.3l0.6,0v7.4H59.2z"/>
			<path class="st0" d="M64.8,116.4L64.8,116.4c-0.3,0.5-1,0.8-1.7,0.8c-1,0-1.7-0.5-1.7-1.7c0-1,0.6-1.6,2-1.6c0.5,0,1,0.1,1.4,0.2
				v-0.7c0-1-0.4-1.4-1.4-1.4c-0.6,0-1.1,0.1-1.5,0.3l-0.1-0.5c0.5-0.2,1.1-0.4,1.7-0.4c1.3,0,1.9,0.5,1.9,2v3.6h-0.4L64.8,116.4z
				 M64.8,114.6c-0.1-0.1-0.6-0.3-1.3-0.3c-1.1,0-1.5,0.4-1.5,1.2c0,0.9,0.6,1.2,1.3,1.2c0.8,0,1.5-0.6,1.5-1.1
				C64.7,115.7,64.7,114.6,64.8,114.6z"/>
			<path class="st0" d="M70.1,116.4L70.1,116.4c-0.3,0.5-1,0.8-1.7,0.8c-1,0-1.7-0.5-1.7-1.7c0-1,0.6-1.6,2-1.6c0.5,0,1,0.1,1.4,0.2
				v-0.7c0-1-0.4-1.4-1.4-1.4c-0.6,0-1.1,0.1-1.5,0.3L67,112c0.5-0.2,1.1-0.4,1.7-0.4c1.3,0,1.9,0.5,1.9,2v3.6h-0.4L70.1,116.4z
				 M70,114.6c-0.1-0.1-0.6-0.3-1.3-0.3c-1.1,0-1.5,0.4-1.5,1.2c0,0.9,0.6,1.2,1.3,1.2c0.8,0,1.5-0.6,1.5-1.1
				C70,115.7,70,114.6,70,114.6z"/>
			<path class="st0" d="M72.2,117.2v-5.4l0.5,0l0,0.6l0,0.7h0c0.3-0.8,0.9-1.4,1.8-1.4c0.2,0,0.4,0,0.5,0.1l0,0.6
				c-0.2-0.1-0.3-0.1-0.5-0.1c-0.9,0-1.7,0.8-1.7,2.2v2.8L72.2,117.2L72.2,117.2z"/>
			<path class="st0" d="M77.5,117.3c-0.6,0-1.3-0.2-1.7-0.5l0.1-0.5c0.4,0.3,1,0.5,1.6,0.5c0.9,0,1.3-0.5,1.3-1.1
				c0-1.5-2.9-0.8-2.9-2.6c0-0.9,0.6-1.4,1.8-1.4c0.5,0,1,0.1,1.4,0.3l-0.1,0.5c-0.5-0.2-0.9-0.3-1.4-0.3c-0.8,0-1.3,0.4-1.3,0.9
				c0,1.4,2.9,0.7,2.9,2.6C79.4,116.6,78.8,117.3,77.5,117.3z"/>
			<path class="st0" d="M83.3,114.3c0-1.7,0.7-2.6,2.2-2.6c1.2,0,2.1,0.7,2.1,2.5c0,0.1,0,0.2,0,0.3h-3.7c0,1.7,0.6,2.3,1.9,2.3
				c0.6,0,1-0.1,1.5-0.4l0.1,0.5c-0.5,0.3-1,0.4-1.6,0.4C84,117.3,83.3,116.4,83.3,114.3z M87,114c0-1.4-0.7-1.9-1.6-1.9
				c-1.1,0-1.5,0.6-1.6,1.9H87z"/>
			<path class="st0" d="M92.4,117.2v-3.7c0-0.9-0.5-1.3-1.4-1.3c-0.5,0-1.2,0.3-1.5,0.7v4.3h-0.6v-5.4l0.4,0l0.1,0.7h0
				c0.4-0.5,1-0.7,1.7-0.7c1.2,0,1.9,0.6,1.9,1.9v3.7L92.4,117.2L92.4,117.2z"/>
			<path class="st0" d="M100.6,116.4L100.6,116.4c-0.3,0.5-1,0.8-1.7,0.8c-1,0-1.7-0.5-1.7-1.7c0-1,0.6-1.6,2-1.6
				c0.5,0,1,0.1,1.4,0.2v-0.7c0-1-0.4-1.4-1.4-1.4c-0.6,0-1.1,0.1-1.5,0.3l-0.1-0.5c0.5-0.2,1.1-0.4,1.7-0.4c1.3,0,1.9,0.5,1.9,2
				v3.6h-0.4L100.6,116.4z M100.6,114.6c-0.1-0.1-0.6-0.3-1.3-0.3c-1.1,0-1.5,0.4-1.5,1.2c0,0.9,0.6,1.2,1.3,1.2
				c0.8,0,1.5-0.6,1.5-1.1C100.6,115.7,100.6,114.6,100.6,114.6z"/>
			<path class="st0" d="M106.3,117.2l-0.1-0.6l0,0c-0.3,0.5-0.9,0.8-1.7,0.8c-1.5,0-2.1-0.9-2.1-2.8c0-1.9,0.6-2.8,2.1-2.8
				c0.7,0,1.3,0.2,1.7,0.7l0,0l0-0.7v-1.8l0.6,0v7.4L106.3,117.2L106.3,117.2z M106.2,112.9c-0.3-0.5-0.8-0.7-1.5-0.7
				c-1.2,0-1.7,0.7-1.7,2.3c0,1.7,0.4,2.3,1.7,2.3c0.9,0,1.4-0.5,1.5-0.8L106.2,112.9L106.2,112.9z"/>
			<path class="st0" d="M113.1,111.7l-2.2,5.4h-0.7l-2.2-5.4h0.6l1.6,4.2l0.3,0.7h0l0.2-0.7l1.6-4.2H113.1z"/>
			<path class="st0" d="M114.9,110.6c-0.3,0-0.4-0.1-0.4-0.4c0-0.3,0.2-0.4,0.4-0.4c0.3,0,0.4,0.1,0.4,0.4
				C115.3,110.5,115.1,110.6,114.9,110.6z M114.6,117.2v-5.4l0.6,0v5.5H114.6z"/>
			<path class="st0" d="M118.5,117.3c-0.6,0-1.3-0.2-1.7-0.5l0.1-0.5c0.4,0.3,1,0.5,1.6,0.5c0.9,0,1.3-0.5,1.3-1.1
				c0-1.5-2.9-0.8-2.9-2.6c0-0.9,0.6-1.4,1.8-1.4c0.5,0,1,0.1,1.4,0.3l-0.1,0.5c-0.5-0.2-0.9-0.3-1.4-0.3c-0.8,0-1.3,0.4-1.3,0.9
				c0,1.4,2.9,0.7,2.9,2.6C120.3,116.6,119.8,117.3,118.5,117.3z"/>
			<path class="st0" d="M121.3,114.3c0-1.7,0.7-2.6,2.2-2.6c1.2,0,2.1,0.7,2.1,2.5c0,0.1,0,0.2,0,0.3h-3.7c0,1.7,0.6,2.3,1.9,2.3
				c0.6,0,1-0.1,1.5-0.4l0.1,0.5c-0.5,0.3-1,0.4-1.6,0.4C122,117.3,121.3,116.4,121.3,114.3z M125.1,114c0-1.4-0.7-1.9-1.6-1.9
				c-1.1,0-1.5,0.6-1.6,1.9H125.1z"/>
			<path class="st0" d="M130.9,115.5c0,1.1-0.7,1.8-2,1.8c-1.4,0-2-0.7-2-1.8v-3.7h0.6v3.7c0,0.8,0.5,1.3,1.5,1.3s1.5-0.5,1.5-1.3
				v-3.7h0.6L130.9,115.5L130.9,115.5z"/>
			<path class="st0" d="M132.5,117.2v-5.4l0.5,0l0,0.6l0,0.7h0c0.3-0.8,0.9-1.4,1.8-1.4c0.2,0,0.4,0,0.5,0.1l0,0.6
				c-0.2-0.1-0.3-0.1-0.5-0.1c-0.9,0-1.7,0.8-1.7,2.2v2.8L132.5,117.2L132.5,117.2z"/>
			<path class="st0" d="M137.9,117.3c-0.6,0-1.3-0.2-1.7-0.5l0.1-0.5c0.4,0.3,1,0.5,1.6,0.5c0.9,0,1.3-0.5,1.3-1.1
				c0-1.5-2.9-0.8-2.9-2.6c0-0.9,0.6-1.4,1.8-1.4c0.5,0,1,0.1,1.4,0.3l-0.1,0.5c-0.5-0.2-0.9-0.3-1.4-0.3c-0.8,0-1.3,0.4-1.3,0.9
				c0,1.4,2.9,0.7,2.9,2.6C139.7,116.6,139.1,117.3,137.9,117.3z"/>
		</g>
	</g>
	<g>
		<path class="st1" d="M9.7,91.8C9.7,96,7.4,98,3.5,98C2,98,0.9,97.6,0,97l0.2-2.1c0.7,0.6,1.8,0.9,3,0.9c2.6,0,4.1-1.3,4.1-4.1
			V80.2h2.4L9.7,91.8L9.7,91.8z"/>
		<path class="st1" d="M23.4,93.5h-7.7l-1.4,4.2h-2.6l6.4-17.5h2.8l6.5,17.5h-2.7L23.4,93.5z M19,83.7l-2.6,7.7h6.3l-2.5-7.7
			l-0.5-1.8h-0.1L19,83.7z"/>
		<path class="st1" d="M40.3,82.8c-0.9-0.4-2.3-0.7-3.7-0.7c-3.7,0-5.3,1.6-5.3,6.6c0,5.4,1.6,7,5.3,7c1.4,0,2.6-0.3,3.7-0.8l0.3,2
			c-1.1,0.6-2.7,1-4.3,1c-5.2,0-7.5-2.9-7.5-9.2c0-6,2.4-8.9,7.7-8.9c1.4,0,3.1,0.4,4.1,0.8L40.3,82.8z"/>
		<path class="st1" d="M54.4,97.7l-5.6-8.1h-2.5v8.1h-2.4V80.2h2.4v7.4h2.6l5.4-7.4h2.8l-6,8.3l6.4,9.2H54.4z"/>
		<path class="st1" d="M69.7,82.4v5.4h7l0,2.1h-7v7.7h-2.4V80.2h10.8l0,2.3C78.1,82.4,69.7,82.4,69.7,82.4z"/>
		<path class="st1" d="M89.3,89.9l4.6,7.8H91l-3.9-7.4h-3.5v7.4h-2.4V80.2h5.9c3.8,0,5.6,1.6,5.6,5C92.7,87.8,91.5,89.5,89.3,89.9z
			 M87.1,82.2h-3.5v6.2H87c2.2,0,3.2-0.8,3.2-3.2C90.2,83.1,89.3,82.2,87.1,82.2z"/>
		<path class="st1" d="M107.8,95.5l-0.1,2.2H96.6V80.2h10.8l0.1,2.2H99v5.2h7.2v2H99v5.9H107.8z"/>
		<path class="st1" d="M122.6,97.7l-8.3-12l-1-1.6l0,0l0,1.9v11.7h-2.1V80.2h2.2l8.9,13.2l0,0l0-1.9V80.2h2.1v17.5L122.6,97.7
			L122.6,97.7z"/>
		<path class="st1" d="M139.4,97.7l-5.6-8.1h-2.5v8.1h-2.4V80.2h2.4v7.4h2.6l5.4-7.4h2.8l-6,8.3l6.4,9.2H139.4z"/>
		<path class="st1" d="M156.5,95.5l-0.1,2.2h-11.2V80.2H156l0.1,2.2h-8.4v5.2h7.2v2h-7.2v5.9H156.5z"/>
		<path class="st1" d="M171.2,97.7l-8.3-12l-1-1.6l0,0l0,1.9v11.7h-2.1V80.2h2.2l8.9,13.2l0,0l0-1.9V80.2h2.1v17.5L171.2,97.7
			L171.2,97.7z"/>
	</g>
	<g>
		<polygon class="st2" points="87.2,68.1 121.6,33.7 104.4,16.5 95.8,25.1 87.2,25.1 87.2,33.7 95.8,33.7 95.8,42.3 87.2,42.3 
			87.2,59.5 82.9,63.8 		"/>
		<g>
			<g>
				<defs>
					<path id="SVGID_1_" d="M86,66.9c0.7,0.7,1.8,0.7,2.4,0l32-32c0.7-0.7,0.7-1.8,0-2.4l-32-32c-0.7-0.7-1.8-0.7-2.4,0l-32,32
						c-0.7,0.7-0.7,1.8,0,2.4L86,66.9z"/>
				</defs>
				<clipPath id="SVGID_2_">
					<use xlink:href="#SVGID_1_"  style="overflow:visible;"/>
				</clipPath>
				<g class="st3">
					<g>
						<polygon class="st4" points="76.4,57.3 82.9,63.8 87.2,59.5 87.2,42.3 95.8,42.3 95.8,33.7 87.2,33.7 87.2,25.1 95.8,25.1 
							104.4,16.5 76.4,16.5 						"/>
					</g>
				</g>
			</g>
		</g>
		<polygon class="st4" points="76.4,57.6 82.7,63.9 87.2,59.5 87.2,42.3 95.8,42.3 95.8,33.7 87.2,33.7 87.2,25.1 95.8,25.1 
			104.4,16.5 76.4,16.5 		"/>
		<g>
			<path class="st5" d="M76.4,16.5h27.9l-16-16c-0.7-0.7-1.8-0.7-2.4,0l-32,32c-0.7,0.7-0.7,1.8,0,2.4l22.4,22.4L76.4,16.5
				L76.4,16.5z"/>
		</g>
	</g>
</g>
</svg>
