<?xml version="1.0" encoding="utf-8"?>
<!-- Generator: Adobe Illustrator 21.1.0, SVG Export Plug-In . SVG Version: 6.00 Build 0)  -->
<svg version="1.1" id="Layer_1" xmlns="http://www.w3.org/2000/svg" xmlns:xlink="http://www.w3.org/1999/xlink" x="0px" y="0px"
	 viewBox="0 0 254 68" style="enable-background:new 0 0 254 68;" xml:space="preserve">
<style type="text/css">
	.st0{fill:#FFFFFF;}
	.st1{fill:#00529B;}
	.st2{fill:#1D1D1B;}
	.st3{fill:#0090D0;}
	.st4{fill:#003063;}
</style>
<rect x="8.5" y="12.7" transform="matrix(0.7071 -0.7071 0.7071 0.7071 -13.7208 32.8422)" class="st0" width="48.6" height="40.6"/>
<g>
	<path class="st1" d="M122.1,61.9v-3.7c0-0.9-0.5-1.3-1.3-1.3c-0.6,0-1.2,0.4-1.2,1.2v3.8H119v-3.8c0-0.8-0.6-1.2-1.2-1.2
		c-0.5,0-1.1,0.3-1.3,0.7v4.3h-0.6v-5.4l0.4,0l0.1,0.7h0c0.3-0.4,0.8-0.7,1.4-0.7c0.8,0,1.3,0.3,1.5,0.9h0c0.3-0.6,0.8-0.9,1.5-0.9
		c1,0,1.7,0.6,1.7,1.8v3.7H122.1z"/>
	<path class="st1" d="M127.4,61.1L127.4,61.1c-0.3,0.5-1,0.8-1.7,0.8c-1,0-1.7-0.5-1.7-1.7c0-1,0.6-1.6,2-1.6c0.5,0,1,0.1,1.4,0.2
		v-0.7c0-1-0.4-1.4-1.4-1.4c-0.6,0-1.1,0.1-1.5,0.3l-0.1-0.5c0.5-0.2,1.1-0.4,1.7-0.4c1.3,0,1.9,0.5,1.9,2v3.6h-0.4L127.4,61.1z
		 M127.4,59.3c-0.1-0.1-0.6-0.3-1.3-0.3c-1.1,0-1.5,0.4-1.5,1.2c0,0.9,0.6,1.2,1.3,1.2c0.8,0,1.5-0.6,1.5-1.1V59.3z"/>
</g>
<polygon class="st1" points="129.6,54.6 129.6,61.9 130.2,61.9 130.2,59.2 131,59.2 133,61.9 133.7,61.9 131.5,58.9 133.7,56.4 
	132.9,56.4 131,58.7 130.2,58.7 130.2,54.5 "/>
<g>
	<path class="st1" d="M134.4,59c0-1.7,0.7-2.6,2.2-2.6c1.2,0,2.1,0.7,2.1,2.5c0,0.1,0,0.2,0,0.3h-3.7c0,1.7,0.6,2.3,1.9,2.3
		c0.6,0,1-0.1,1.5-0.4l0.1,0.5c-0.5,0.3-1,0.4-1.6,0.4C135.1,62,134.4,61.1,134.4,59 M138.1,58.7c0-1.4-0.7-1.9-1.6-1.9
		c-1.1,0-1.5,0.6-1.6,1.9H138.1z"/>
</g>
<polygon class="st1" points="140.2,54.6 140.2,61.9 140.8,61.9 140.8,54.5 "/>
<g>
	<path class="st1" d="M145.8,61.1L145.8,61.1c-0.3,0.5-1,0.8-1.7,0.8c-1,0-1.7-0.5-1.7-1.7c0-1,0.6-1.6,2-1.6c0.5,0,1,0.1,1.4,0.2
		v-0.7c0-1-0.4-1.4-1.4-1.4c-0.6,0-1.1,0.1-1.5,0.3l-0.1-0.5c0.5-0.2,1.1-0.4,1.7-0.4c1.3,0,1.9,0.5,1.9,2v3.6h-0.4L145.8,61.1z
		 M145.7,59.3c-0.1-0.1-0.6-0.3-1.3-0.3c-1.1,0-1.5,0.4-1.5,1.2c0,0.9,0.6,1.2,1.3,1.2c0.8,0,1.5-0.6,1.5-1.1V59.3z"/>
	<path class="st1" d="M151.1,61.1L151.1,61.1c-0.3,0.5-1,0.8-1.7,0.8c-1,0-1.7-0.5-1.7-1.7c0-1,0.6-1.6,2-1.6c0.5,0,1,0.1,1.4,0.2
		v-0.7c0-1-0.4-1.4-1.4-1.4c-0.6,0-1.1,0.1-1.5,0.3l-0.1-0.5c0.5-0.2,1.1-0.4,1.7-0.4c1.3,0,1.9,0.5,1.9,2v3.6h-0.4L151.1,61.1z
		 M151,59.3c-0.1-0.1-0.6-0.3-1.3-0.3c-1.1,0-1.5,0.4-1.5,1.2c0,0.9,0.6,1.2,1.3,1.2c0.8,0,1.5-0.6,1.5-1.1V59.3z"/>
	<path class="st1" d="M153.2,61.9v-5.4l0.5,0l0,0.6l0,0.7h0c0.3-0.8,0.9-1.4,1.8-1.4c0.2,0,0.4,0,0.5,0.1l0,0.6
		c-0.2-0.1-0.3-0.1-0.5-0.1c-0.9,0-1.7,0.8-1.7,2.2v2.8L153.2,61.9L153.2,61.9z"/>
	<path class="st1" d="M158.5,62c-0.6,0-1.3-0.2-1.7-0.5L157,61c0.4,0.3,1,0.5,1.6,0.5c0.9,0,1.3-0.5,1.3-1.1c0-1.5-2.9-0.8-2.9-2.6
		c0-0.9,0.6-1.4,1.8-1.4c0.5,0,1,0.1,1.4,0.3l-0.1,0.5c-0.5-0.2-0.9-0.3-1.4-0.3c-0.8,0-1.3,0.4-1.3,0.9c0,1.4,2.9,0.7,2.9,2.6
		C160.4,61.3,159.8,62,158.5,62"/>
	<path class="st1" d="M164.3,59c0-1.7,0.7-2.6,2.2-2.6c1.2,0,2.1,0.7,2.1,2.5c0,0.1,0,0.2,0,0.3h-3.7c0,1.7,0.6,2.3,1.9,2.3
		c0.6,0,1-0.1,1.5-0.4l0.1,0.5c-0.5,0.3-1,0.4-1.6,0.4C165,62,164.3,61.1,164.3,59 M168,58.7c0-1.4-0.7-1.9-1.6-1.9
		c-1.1,0-1.5,0.6-1.6,1.9H168z"/>
	<path class="st1" d="M173.4,61.9v-3.7c0-0.9-0.5-1.3-1.4-1.3c-0.5,0-1.2,0.3-1.5,0.7v4.3h-0.6v-5.4l0.4,0l0.1,0.7h0
		c0.4-0.5,1-0.7,1.7-0.7c1.2,0,1.9,0.6,1.9,1.9v3.7H173.4z"/>
	<path class="st1" d="M181.6,61.1L181.6,61.1c-0.3,0.5-1,0.8-1.7,0.8c-1,0-1.7-0.5-1.7-1.7c0-1,0.6-1.6,2-1.6c0.5,0,1,0.1,1.4,0.2
		v-0.7c0-1-0.4-1.4-1.4-1.4c-0.6,0-1.1,0.1-1.5,0.3l-0.1-0.5c0.5-0.2,1.1-0.4,1.7-0.4c1.3,0,1.9,0.5,1.9,2v3.6h-0.4L181.6,61.1z
		 M181.6,59.3c-0.1-0.1-0.6-0.3-1.3-0.3c-1.1,0-1.5,0.4-1.5,1.2c0,0.9,0.6,1.2,1.3,1.2c0.8,0,1.5-0.6,1.5-1.1V59.3z"/>
	<path class="st1" d="M187.3,61.9l-0.1-0.6l0,0c-0.3,0.5-0.9,0.8-1.7,0.8c-1.5,0-2.1-0.9-2.1-2.8c0-1.9,0.6-2.8,2.1-2.8
		c0.7,0,1.3,0.2,1.7,0.7l0,0l0-0.7v-1.8l0.6,0v7.4L187.3,61.9L187.3,61.9z M187.2,57.6c-0.3-0.5-0.8-0.7-1.5-0.7
		c-1.2,0-1.7,0.7-1.7,2.3c0,1.7,0.4,2.3,1.7,2.3c0.9,0,1.4-0.5,1.5-0.8L187.2,57.6L187.2,57.6z"/>
</g>
<polygon class="st1" points="193.4,56.5 191.8,60.7 191.6,61.4 191.5,61.4 191.3,60.7 189.7,56.5 189,56.5 191.2,61.9 191.9,61.9 
	194.1,56.5 "/>
<g>
	<path class="st1" d="M195.9,55.3c-0.3,0-0.4-0.1-0.4-0.4c0-0.3,0.2-0.4,0.4-0.4c0.3,0,0.4,0.1,0.4,0.4
		C196.3,55.2,196.1,55.3,195.9,55.3 M195.6,61.9v-5.4l0.6,0v5.5H195.6z"/>
	<path class="st1" d="M199.5,62c-0.6,0-1.3-0.2-1.7-0.5l0.1-0.5c0.4,0.3,1,0.5,1.6,0.5c0.9,0,1.3-0.5,1.3-1.1c0-1.5-2.9-0.8-2.9-2.6
		c0-0.9,0.6-1.4,1.8-1.4c0.5,0,1,0.1,1.4,0.3l-0.1,0.5c-0.5-0.2-0.9-0.3-1.4-0.3c-0.8,0-1.3,0.4-1.3,0.9c0,1.4,2.9,0.7,2.9,2.6
		C201.3,61.3,200.8,62,199.5,62"/>
	<path class="st1" d="M202.3,59c0-1.7,0.7-2.6,2.2-2.6c1.2,0,2.1,0.7,2.1,2.5c0,0.1,0,0.2,0,0.3h-3.7c0,1.7,0.6,2.3,1.9,2.3
		c0.6,0,1-0.1,1.5-0.4l0.1,0.5c-0.5,0.3-1,0.4-1.6,0.4C203,62,202.3,61.1,202.3,59 M206.1,58.7c0-1.4-0.7-1.9-1.6-1.9
		c-1.1,0-1.5,0.6-1.6,1.9H206.1z"/>
	<path class="st1" d="M211.9,60.2c0,1.1-0.7,1.8-2,1.8c-1.4,0-2-0.7-2-1.8v-3.7h0.6v3.7c0,0.8,0.5,1.3,1.5,1.3s1.5-0.5,1.5-1.3v-3.7
		h0.6V60.2z"/>
	<path class="st1" d="M213.5,61.9v-5.4l0.5,0l0,0.6l0,0.7h0c0.3-0.8,0.9-1.4,1.8-1.4c0.2,0,0.4,0,0.5,0.1l0,0.6
		c-0.2-0.1-0.3-0.1-0.5-0.1c-0.9,0-1.7,0.8-1.7,2.2v2.8L213.5,61.9L213.5,61.9z"/>
	<path class="st1" d="M218.9,62c-0.6,0-1.3-0.2-1.7-0.5l0.1-0.5c0.4,0.3,1,0.5,1.6,0.5c0.9,0,1.3-0.5,1.3-1.1c0-1.5-2.9-0.8-2.9-2.6
		c0-0.9,0.6-1.4,1.8-1.4c0.5,0,1,0.1,1.4,0.3l-0.1,0.5c-0.5-0.2-0.9-0.3-1.4-0.3c-0.8,0-1.3,0.4-1.3,0.9c0,1.4,2.9,0.7,2.9,2.6
		C220.7,61.3,220.1,62,218.9,62"/>
	<path class="st2" d="M90.7,36.5c0,4.3-2.3,6.2-6.2,6.2c-1.5,0-2.7-0.4-3.5-1l0.2-2.1c0.7,0.6,1.8,0.9,3,0.9c2.6,0,4.1-1.3,4.1-4.1
		V24.9h2.4L90.7,36.5L90.7,36.5z"/>
</g>
<path class="st2" d="M104.4,38.2h-7.7l-1.4,4.2h-2.6l6.4-17.5h2.8l6.5,17.5h-2.7L104.4,38.2z M100,28.4l-2.6,7.7h6.3l-2.5-7.7
	l-0.5-1.8h-0.1L100,28.4z"/>
<g>
	<path class="st2" d="M121.3,27.5c-0.9-0.4-2.3-0.7-3.7-0.7c-3.7,0-5.3,1.6-5.3,6.6c0,5.4,1.6,7,5.3,7c1.4,0,2.6-0.3,3.7-0.8l0.3,2
		c-1.1,0.6-2.7,1-4.3,1c-5.2,0-7.5-2.9-7.5-9.2c0-6,2.4-8.9,7.7-8.9c1.4,0,3.1,0.4,4.1,0.8L121.3,27.5z"/>
</g>
<polygon class="st2" points="135.4,42.4 129.8,34.3 127.3,34.3 127.3,42.4 124.9,42.4 124.9,24.9 127.3,24.9 127.3,32.3 129.9,32.3 
	135.2,24.9 138.1,24.9 132,33.2 138.4,42.4 "/>
<polygon class="st2" points="150.7,27.1 150.7,32.5 157.7,32.5 157.7,34.6 150.7,34.6 150.7,42.4 148.3,42.4 148.3,24.9 159.1,24.9 
	159.1,27.1 "/>
<g>
	<path class="st2" d="M170.3,34.6l4.6,7.8H172l-3.9-7.4h-3.5v7.4h-2.4V24.9h5.9c3.8,0,5.6,1.6,5.6,5
		C173.7,32.5,172.5,34.2,170.3,34.6 M168.1,27h-3.5v6.2h3.5c2.2,0,3.2-0.8,3.2-3.1C171.2,27.8,170.3,27,168.1,27"/>
</g>
<polygon class="st2" points="188.8,40.2 188.8,42.4 177.6,42.4 177.6,24.9 188.4,24.9 188.4,27.1 180,27.1 180,32.3 187.2,32.3 
	187.2,34.3 180,34.3 180,40.2 "/>
<polygon class="st2" points="203.6,42.4 195.3,30.3 194.3,28.7 194.3,28.8 194.3,30.7 194.3,42.4 192.1,42.4 192.1,24.9 194.3,24.9 
	203.2,38.1 203.2,38.1 203.2,36.2 203.2,24.9 205.3,24.9 205.3,42.4 203.6,42.4 "/>
<polygon class="st2" points="220.4,42.4 214.8,34.3 212.2,34.3 212.2,42.4 209.8,42.4 209.8,24.9 212.2,24.9 212.2,32.3 214.8,32.3 
	220.2,24.9 223,24.9 217,33.2 223.4,42.4 "/>
<polygon class="st2" points="237.5,40.2 237.4,42.4 226.2,42.4 226.2,24.9 237,24.9 237.1,27.1 228.6,27.1 228.6,32.3 235.8,32.3 
	235.8,34.3 228.6,34.3 228.6,40.2 "/>
<polygon class="st2" points="240.8,24.9 240.8,42.4 242.9,42.4 242.9,30.7 242.9,28.8 242.9,28.7 244,30.3 252.2,42.4 252.2,42.4 
	253.9,42.4 253.9,24.9 251.8,24.9 251.8,36.2 251.9,38.1 251.8,38.1 242.9,24.9 "/>
<polygon class="st3" points="33.2,67.8 67.6,33.4 50.4,16.2 41.8,24.8 33.2,24.8 33.2,33.4 41.8,33.4 41.8,42 33.2,42 33.2,59.2 
	28.9,63.5 "/>
<g>
	<path class="st4" d="M22.4,16.2h27.9l-16-16c-0.7-0.7-1.8-0.7-2.4,0l-32,32c-0.7,0.7-0.7,1.8,0,2.4L22.4,57L22.4,16.2L22.4,16.2z"
		/>
</g>
</svg>
