<?xml version="1.0" encoding="utf-8"?>
<!-- Generator: Adobe Illustrator 27.5.0, SVG Export Plug-In . SVG Version: 6.00 Build 0)  -->
<svg version="1.1" id="Laag_1" xmlns="http://www.w3.org/2000/svg" xmlns:xlink="http://www.w3.org/1999/xlink" x="0px" y="0px"
	 viewBox="0 0 531.1 129" style="enable-background:new 0 0 531.1 129;" xml:space="preserve">
<style type="text/css">
	.st0{fill:#0E3563;}
	.st1{fill:#3096B8;}
	.st2{fill:none;}
	.st3{fill:#FFFFFF;}
	.st4{fill:#475782;}
</style>
<g>
	<g>
		<g>
			<g>
				<path class="st0" d="M224.6,64.9h-14.7l-2.5,7.2h-6L214,36.9h6.7l12.6,35.2h-6.1L224.6,64.9z M217.3,43.9l-5.8,16.3H223
					L217.3,43.9z"/>
			</g>
			<g>
				<path class="st0" d="M254.7,36.5c7.3,0,13.7,3.7,16.3,10.6h-6.9c-1.9-3.7-5.2-5.5-9.4-5.5c-7,0-12,5-12,12.9s5.1,12.9,12,12.9
					c4.2,0,7.5-1.8,9.4-5.5h6.9c-2.7,6.9-9,10.5-16.3,10.5c-9.9,0-17.9-7.4-17.9-17.9C236.7,44,244.8,36.5,254.7,36.5z"/>
			</g>
			<g>
				<path class="st0" d="M283.5,56.4v15.7h-5.8V37h5.8v16l13.7-16h7.2l-15.3,17.6l15.5,17.5h-7.5L283.5,56.4z"/>
			</g>
			<g>
				<path class="st0" d="M322.9,37h20.7v4.7h-14.9v10.4h11.6v4.7h-11.6v15.4h-5.8L322.9,37L322.9,37z"/>
			</g>
			<g>
				<path class="st0" d="M361,37c8.3,0,12.4,4.8,12.4,10.5c0,4.1-2.2,8.6-8.1,10.1l8.7,14.6h-6.9L359,58.1h-4.4v14.1h-5.8V37H361z
					 M361,41.7h-6.4v11.8h6.4c4.5,0,6.5-2.5,6.5-6S365.5,41.7,361,41.7z"/>
			</g>
			<g>
				<path class="st0" d="M400.2,41.6h-13.7v10.3h12.1v4.7h-12.1v10.8h13.7v4.7h-19.4V36.9h19.4V41.6z"/>
			</g>
			<g>
				<path class="st0" d="M436.2,36.9v35.2h-5.8l-17.3-26.2v26.2h-5.8V36.9h5.8l17.3,26.2V36.9H436.2z"/>
			</g>
			<g>
				<path class="st0" d="M449.5,56.4v15.7h-5.8V37h5.8v16l13.7-16h7.2l-15.3,17.6l15.5,17.5h-7.5L449.5,56.4z"/>
			</g>
			<g>
				<path class="st0" d="M495.2,41.6h-13.7v10.3h12.1v4.7h-12.1v10.8h13.7v4.7h-19.4V36.9h19.4V41.6z"/>
			</g>
			<g>
				<path class="st0" d="M531.1,36.9v35.2h-5.8L508,45.9v26.2h-5.8V36.9h5.8l17.3,26.2V36.9H531.1z"/>
			</g>
		</g>
		<path class="st0" d="M188.9,36.4v23.9c0,4.4-2.4,7.1-6.4,7.1c-2.7,0-4.9-1.1-6.7-3.2l-0.4-0.5l-3.6,4.3l0.3,0.4
			c2.7,3.1,6.2,4.7,10.4,4.7c3.6,0,6.6-1.1,8.8-3.3c2.3-2.2,3.4-5.3,3.4-9.2V36.4H188.9z"/>
	</g>
	<g>
		<g>
			<polygon class="st1" points="63.8,129 129,63.8 96.4,31.2 80.1,47.5 63.8,47.5 63.8,63.8 80.1,63.8 80.1,80.1 63.8,80.1 
				63.8,112.7 55.7,120.8 			"/>
			<path class="st2" d="M61.5,1L0.9,61.5c-1.3,1.3-1.3,3.3,0,4.6l60.6,60.6c1.3,1.3,3.3,1.3,4.6,0l60.6-60.6c1.3-1.3,1.3-3.3,0-4.6
				L66.1,1c-0.6-0.6-1.5-1-2.3-1S62.1,0.3,61.5,1"/>
			<polygon class="st3" points="43.4,109.2 55.4,121.1 63.8,112.7 63.8,80.1 80.1,80.1 80.1,63.8 63.8,63.8 63.8,47.5 80.1,47.5 
				96.4,31.2 43.4,31.2 			"/>
			<path class="st0" d="M43.4,31.2h52.9L66.1,1c-1.3-1.3-3.3-1.3-4.6,0L0.9,61.5c-1.3,1.3-1.3,3.3,0,4.6l42.5,42.5V31.2z"/>
		</g>
	</g>
</g>
<g>
	<path class="st4" d="M252.4,111.9c0,1.6-0.1,2.8-0.4,3.7c-0.4,1.2-1,2.1-1.9,2.8c-0.9,0.7-2,1-3.4,1c-0.8,0-1.5-0.2-2.1-0.5
		c-0.6-0.3-1.2-0.8-1.6-1.3c0,0,0-0.1-0.1,0c0,0-0.1,0-0.1,0.1v1.2c0,0.2-0.1,0.3-0.3,0.3H241c-0.2,0-0.3-0.1-0.3-0.3V99.2
		c0-0.2,0.1-0.3,0.3-0.3h1.5c0.2,0,0.3,0.1,0.3,0.3v6.8c0,0,0,0.1,0,0.1c0,0,0.1,0,0.1,0c0.4-0.6,1-1,1.6-1.3
		c0.6-0.3,1.3-0.5,2.1-0.5c1.4,0,2.5,0.4,3.5,1.1c0.9,0.7,1.6,1.7,1.9,2.9C252.3,109.2,252.4,110.4,252.4,111.9z M250.2,114
		c0.1-0.5,0.1-1.2,0.1-2.1c0-0.9-0.1-1.7-0.2-2.2c-0.1-0.5-0.3-1-0.5-1.4c-0.3-0.6-0.7-1.1-1.2-1.5c-0.6-0.4-1.2-0.6-2-0.6
		c-0.7,0-1.4,0.2-1.9,0.6c-0.5,0.4-0.9,0.9-1.1,1.6c-0.2,0.4-0.3,0.9-0.4,1.4c-0.1,0.5-0.1,1.3-0.1,2.2c0,0.9,0,1.6,0.1,2.2
		c0.1,0.5,0.2,1,0.4,1.4c0.3,0.7,0.6,1.2,1.2,1.6c0.5,0.4,1.2,0.6,1.9,0.6c0.8,0,1.5-0.2,2.1-0.6c0.6-0.4,1-1,1.2-1.7
		C250,115,250.1,114.5,250.2,114z"/>
	<path class="st4" d="M267.9,111.4v0.9c0,0.2-0.1,0.3-0.3,0.3h-9.4c-0.1,0-0.1,0-0.1,0.1c0,1.1,0.1,1.8,0.2,2.1
		c0.2,0.9,0.7,1.6,1.4,2.1c0.7,0.5,1.6,0.8,2.7,0.8c0.8,0,1.5-0.2,2.1-0.6c0.6-0.4,1.1-0.9,1.4-1.6c0.1-0.2,0.3-0.2,0.4-0.1l1.1,0.7
		c0.2,0.1,0.2,0.2,0.1,0.4c-0.5,0.9-1.2,1.7-2.2,2.2c-1,0.5-2.1,0.8-3.3,0.8c-1.4,0-2.5-0.3-3.5-1s-1.6-1.5-2-2.7
		c-0.3-0.9-0.5-2.3-0.5-4c0-0.8,0-1.5,0-2c0-0.5,0.1-1,0.2-1.4c0.3-1.3,1-2.3,2-3c1-0.8,2.2-1.1,3.6-1.1c1.8,0,3.1,0.4,4.1,1.3
		c0.9,0.9,1.5,2.1,1.8,3.8C267.9,110,267.9,110.6,267.9,111.4z M259.6,106.9c-0.6,0.5-1,1.2-1.2,2c-0.1,0.4-0.2,1.1-0.2,2
		c0,0.1,0,0.1,0.1,0.1h7.5c0.1,0,0.1,0,0.1-0.1c0-0.9-0.1-1.5-0.2-1.9c-0.2-0.9-0.6-1.6-1.3-2.1c-0.6-0.5-1.5-0.8-2.5-0.8
		C261,106.1,260.2,106.4,259.6,106.9z"/>
	<path class="st4" d="M281.5,98.9h1.5c0.2,0,0.3,0.1,0.3,0.3v19.7c0,0.2-0.1,0.3-0.3,0.3h-1.5c-0.2,0-0.3-0.1-0.3-0.3v-1.2
		c0,0,0-0.1,0-0.1s-0.1,0-0.1,0c-0.4,0.6-1,1-1.6,1.3c-0.6,0.3-1.3,0.5-2.1,0.5c-1.4,0-2.5-0.3-3.4-1c-0.9-0.7-1.6-1.6-1.9-2.8
		c-0.3-0.9-0.4-2.1-0.4-3.7c0-1.6,0.1-2.8,0.3-3.6c0.3-1.2,1-2.2,1.9-2.9c0.9-0.7,2.1-1.1,3.4-1.1c0.8,0,1.5,0.1,2.1,0.4
		s1.2,0.7,1.6,1.3c0,0,0.1,0.1,0.1,0s0,0,0-0.1v-6.8C281.2,99,281.3,98.9,281.5,98.9z M281.1,114.1c0.1-0.5,0.1-1.2,0.1-2.2
		s0-1.7-0.1-2.2c-0.1-0.5-0.2-1-0.4-1.4c-0.2-0.7-0.6-1.2-1.1-1.6c-0.5-0.4-1.2-0.6-1.9-0.6c-0.8,0-1.4,0.2-2,0.6
		c-0.6,0.4-1,0.9-1.2,1.5c-0.2,0.4-0.4,0.9-0.5,1.4c-0.1,0.5-0.2,1.3-0.2,2.2c0,0.9,0,1.6,0.1,2.1c0.1,0.5,0.2,1,0.4,1.4
		c0.2,0.7,0.6,1.2,1.2,1.7c0.6,0.4,1.3,0.6,2.1,0.6c0.8,0,1.4-0.2,1.9-0.6c0.5-0.4,0.9-0.9,1.2-1.6C280.9,115,281,114.6,281.1,114.1
		z"/>
	<path class="st4" d="M295.7,104.8c0.2,0.1,0.2,0.2,0.2,0.4l-0.3,1.4c-0.1,0.2-0.2,0.3-0.4,0.2c-0.3-0.1-0.7-0.2-1.1-0.2l-0.4,0
		c-1,0-1.8,0.4-2.5,1.1c-0.7,0.7-1,1.6-1,2.7v8.6c0,0.2-0.1,0.3-0.3,0.3h-1.5c-0.2,0-0.3-0.1-0.3-0.3v-14.1c0-0.2,0.1-0.3,0.3-0.3
		h1.5c0.2,0,0.3,0.1,0.3,0.3v1.8c0,0.1,0,0.1,0,0.1c0,0,0.1,0,0.1,0c0.4-0.7,0.9-1.3,1.6-1.7c0.6-0.4,1.4-0.6,2.2-0.6
		C294.7,104.4,295.2,104.5,295.7,104.8z"/>
	<path class="st4" d="M299,101.4c-0.3-0.3-0.4-0.7-0.4-1.2c0-0.5,0.1-0.9,0.4-1.2c0.3-0.3,0.7-0.4,1.2-0.4c0.5,0,0.9,0.1,1.2,0.4
		c0.3,0.3,0.5,0.7,0.5,1.2c0,0.5-0.2,0.9-0.5,1.2c-0.3,0.3-0.7,0.5-1.2,0.5C299.7,101.9,299.3,101.7,299,101.4z M299.2,118.9v-14.1
		c0-0.2,0.1-0.3,0.3-0.3h1.5c0.2,0,0.3,0.1,0.3,0.3v14.1c0,0.2-0.1,0.3-0.3,0.3h-1.5C299.3,119.2,299.2,119.1,299.2,118.9z
		 M302.8,125v-1.2c0-0.2,0.1-0.3,0.3-0.3c2.1,0,3.1-1,3.1-3v-15.7c0-0.2,0.1-0.3,0.3-0.3h1.5c0.2,0,0.3,0.1,0.3,0.3v15.7
		c0,1.6-0.4,2.8-1.2,3.6c-0.8,0.8-2.1,1.1-3.9,1.2C302.9,125.2,302.8,125.2,302.8,125z M306.1,101.4c-0.3-0.3-0.4-0.7-0.4-1.2
		c0-0.5,0.1-0.9,0.4-1.2s0.7-0.4,1.2-0.4c0.5,0,0.8,0.1,1.1,0.4s0.4,0.7,0.4,1.2c0,0.5-0.1,0.9-0.4,1.2c-0.3,0.3-0.7,0.5-1.1,0.5
		C306.8,101.9,306.4,101.7,306.1,101.4z"/>
	<path class="st4" d="M317.1,101.4c-0.4,0.5-0.6,1.3-0.6,2.4v0.6c0,0.1,0,0.1,0.1,0.1h3.2c0.2,0,0.3,0.1,0.3,0.3v1.3
		c0,0.2-0.1,0.3-0.3,0.3h-3.2c-0.1,0-0.1,0-0.1,0.1v12.4c0,0.2-0.1,0.3-0.3,0.3h-1.5c-0.2,0-0.3-0.1-0.3-0.3v-12.4
		c0-0.1,0-0.1-0.1-0.1h-1.9c-0.2,0-0.3-0.1-0.3-0.3v-1.3c0-0.2,0.1-0.3,0.3-0.3h1.9c0.1,0,0.1,0,0.1-0.1v-0.7c0-1.2,0.1-2.1,0.4-2.8
		c0.3-0.7,0.7-1.2,1.4-1.5c0.7-0.3,1.6-0.5,2.8-0.5h0.8c0.2,0,0.3,0.1,0.3,0.3v1.2c0,0.2-0.1,0.3-0.3,0.3h-0.7
		C318.2,100.7,317.4,101,317.1,101.4z"/>
	<path class="st4" d="M325.3,118.8c-0.8-0.3-1.5-0.8-1.9-1.4s-0.7-1.2-0.7-1.9v-0.3c0-0.2,0.1-0.3,0.3-0.3h1.4
		c0.2,0,0.3,0.1,0.3,0.3v0.2c0,0.6,0.3,1.2,1,1.7s1.5,0.7,2.5,0.7c1,0,1.8-0.2,2.4-0.7c0.6-0.5,0.9-1,0.9-1.7c0-0.5-0.2-0.9-0.5-1.2
		c-0.3-0.3-0.7-0.6-1.1-0.7s-1.1-0.4-2-0.7c-1.1-0.3-2-0.6-2.7-0.9c-0.7-0.3-1.3-0.7-1.8-1.3s-0.7-1.3-0.7-2.1c0-1.2,0.5-2.2,1.4-3
		c1-0.7,2.2-1.1,3.8-1.1c1.1,0,2,0.2,2.8,0.5c0.8,0.3,1.5,0.8,1.9,1.4s0.7,1.3,0.7,2v0.1c0,0.2-0.1,0.3-0.3,0.3h-1.4
		c-0.2,0-0.3-0.1-0.3-0.3v-0.1c0-0.7-0.3-1.2-0.9-1.7s-1.5-0.7-2.5-0.7c-1,0-1.8,0.2-2.4,0.6c-0.6,0.4-0.9,0.9-0.9,1.6
		c0,0.7,0.3,1.2,0.9,1.5s1.5,0.7,2.7,1c1.1,0.3,2,0.6,2.7,0.9s1.3,0.7,1.8,1.3c0.5,0.6,0.8,1.3,0.8,2.2c0,1.3-0.5,2.3-1.5,3
		c-1,0.8-2.3,1.1-3.9,1.1C327.1,119.4,326.2,119.2,325.3,118.8z"/>
	<path class="st4" d="M355.8,105.7c0.8,0.9,1.3,2.1,1.3,3.6v9.7c0,0.2-0.1,0.3-0.3,0.3h-1.5c-0.2,0-0.3-0.1-0.3-0.3v-9.3
		c0-1.1-0.3-1.9-0.9-2.5c-0.6-0.6-1.4-0.9-2.4-0.9c-1,0-1.9,0.3-2.5,0.9c-0.6,0.6-0.9,1.5-0.9,2.5v9.4c0,0.2-0.1,0.3-0.3,0.3h-1.5
		c-0.2,0-0.3-0.1-0.3-0.3v-9.3c0-1.1-0.3-1.9-0.9-2.5c-0.6-0.6-1.4-0.9-2.4-0.9c-1,0-1.8,0.3-2.5,0.9c-0.6,0.6-0.9,1.5-0.9,2.5v9.4
		c0,0.2-0.1,0.3-0.3,0.3h-1.5c-0.2,0-0.3-0.1-0.3-0.3v-14.1c0-0.2,0.1-0.3,0.3-0.3h1.5c0.2,0,0.3,0.1,0.3,0.3v1.2c0,0,0,0.1,0,0.1
		c0,0,0.1,0,0.1,0c0.4-0.6,1-1,1.6-1.3s1.4-0.4,2.2-0.4c1,0,1.9,0.2,2.6,0.6s1.3,1,1.6,1.8c0,0.1,0.1,0.1,0.1,0
		c0.4-0.8,1-1.4,1.8-1.8c0.8-0.4,1.7-0.6,2.6-0.6C353.8,104.3,354.9,104.8,355.8,105.7z"/>
	<path class="st4" d="M370.7,105.7c0.9,0.9,1.4,2.1,1.4,3.5v9.7c0,0.2-0.1,0.3-0.3,0.3h-1.5c-0.2,0-0.3-0.1-0.3-0.3v-1.2
		c0,0,0-0.1,0-0.1c0,0-0.1,0-0.1,0c-0.5,0.6-1.1,1-1.9,1.3c-0.8,0.3-1.6,0.5-2.6,0.5c-1.4,0-2.5-0.3-3.5-1c-0.9-0.7-1.4-1.8-1.4-3.2
		c0-1.5,0.5-2.6,1.6-3.4c1.1-0.8,2.5-1.3,4.4-1.3h3.4c0.1,0,0.1,0,0.1-0.1v-1.1c0-1-0.3-1.8-0.8-2.3c-0.6-0.6-1.4-0.9-2.6-0.9
		c-0.9,0-1.7,0.2-2.3,0.5s-0.9,0.9-1.1,1.5c-0.1,0.2-0.2,0.3-0.3,0.3l-1.6-0.2c-0.2,0-0.3-0.1-0.3-0.2c0.2-1.1,0.7-2,1.7-2.6
		s2.3-1,3.8-1C368.4,104.3,369.8,104.8,370.7,105.7z M368.8,116.8c0.8-0.6,1.2-1.3,1.2-2.3v-2.3c0-0.1,0-0.1-0.1-0.1h-3
		c-1.3,0-2.3,0.3-3.1,0.8c-0.8,0.5-1.2,1.2-1.2,2.2c0,0.9,0.3,1.5,0.9,1.9c0.6,0.4,1.4,0.7,2.3,0.7C367,117.7,368,117.4,368.8,116.8
		z"/>
	<path class="st4" d="M376.6,118.9V99.2c0-0.2,0.1-0.3,0.3-0.3h1.5c0.2,0,0.3,0.1,0.3,0.3v11.9c0,0,0,0.1,0,0.1c0,0,0.1,0,0.1,0
		l6.1-6.4c0.1-0.1,0.2-0.1,0.3-0.1h1.7c0.1,0,0.2,0,0.2,0.1c0,0.1,0,0.2-0.1,0.2l-3.7,4.1c0,0,0,0.1,0,0.1l4.4,9.7l0,0.1
		c0,0.2-0.1,0.2-0.3,0.2h-1.6c-0.2,0-0.3-0.1-0.3-0.2l-3.7-8.5c0-0.1-0.1-0.1-0.1,0l-3.2,3.4c0,0-0.1,0.1-0.1,0.1v4.9
		c0,0.2-0.1,0.3-0.3,0.3h-1.5C376.7,119.2,376.6,119.1,376.6,118.9z"/>
	<path class="st4" d="M402.1,111.4v0.9c0,0.2-0.1,0.3-0.3,0.3h-9.4c-0.1,0-0.1,0-0.1,0.1c0,1.1,0.1,1.8,0.2,2.1
		c0.2,0.9,0.7,1.6,1.4,2.1c0.7,0.5,1.6,0.8,2.7,0.8c0.8,0,1.5-0.2,2.1-0.6c0.6-0.4,1.1-0.9,1.4-1.6c0.1-0.2,0.3-0.2,0.4-0.1l1.1,0.7
		c0.2,0.1,0.2,0.2,0.1,0.4c-0.5,0.9-1.2,1.7-2.2,2.2c-1,0.5-2.1,0.8-3.3,0.8c-1.4,0-2.5-0.3-3.5-1s-1.6-1.5-2-2.7
		c-0.3-0.9-0.5-2.3-0.5-4c0-0.8,0-1.5,0-2c0-0.5,0.1-1,0.2-1.4c0.3-1.3,1-2.3,2-3c1-0.8,2.2-1.1,3.6-1.1c1.8,0,3.1,0.4,4.1,1.3
		c0.9,0.9,1.5,2.1,1.8,3.8C402,110,402.1,110.6,402.1,111.4z M393.8,106.9c-0.6,0.5-1,1.2-1.2,2c-0.1,0.4-0.2,1.1-0.2,2
		c0,0.1,0,0.1,0.1,0.1h7.5c0.1,0,0.1,0,0.1-0.1c0-0.9-0.1-1.5-0.2-1.9c-0.2-0.9-0.6-1.6-1.3-2.1c-0.6-0.5-1.5-0.8-2.5-0.8
		C395.2,106.1,394.4,106.4,393.8,106.9z"/>
	<path class="st4" d="M406.3,118.9V99.2c0-0.2,0.1-0.3,0.3-0.3h1.5c0.2,0,0.3,0.1,0.3,0.3v19.7c0,0.2-0.1,0.3-0.3,0.3h-1.5
		C406.4,119.2,406.3,119.1,406.3,118.9z"/>
	<path class="st4" d="M422.2,105.7c0.9,0.9,1.4,2.1,1.4,3.5v9.7c0,0.2-0.1,0.3-0.3,0.3h-1.5c-0.2,0-0.3-0.1-0.3-0.3v-1.2
		c0,0,0-0.1,0-0.1c0,0-0.1,0-0.1,0c-0.5,0.6-1.1,1-1.9,1.3c-0.8,0.3-1.6,0.5-2.6,0.5c-1.4,0-2.5-0.3-3.5-1c-0.9-0.7-1.4-1.8-1.4-3.2
		c0-1.5,0.5-2.6,1.6-3.4c1.1-0.8,2.5-1.3,4.4-1.3h3.4c0.1,0,0.1,0,0.1-0.1v-1.1c0-1-0.3-1.8-0.8-2.3c-0.6-0.6-1.4-0.9-2.6-0.9
		c-0.9,0-1.7,0.2-2.3,0.5s-0.9,0.9-1.1,1.5c-0.1,0.2-0.2,0.3-0.3,0.3l-1.6-0.2c-0.2,0-0.3-0.1-0.3-0.2c0.2-1.1,0.7-2,1.7-2.6
		s2.3-1,3.8-1C419.9,104.3,421.3,104.8,422.2,105.7z M420.3,116.8c0.8-0.6,1.2-1.3,1.2-2.3v-2.3c0-0.1,0-0.1-0.1-0.1h-3
		c-1.3,0-2.3,0.3-3.1,0.8c-0.8,0.5-1.2,1.2-1.2,2.2c0,0.9,0.3,1.5,0.9,1.9c0.6,0.4,1.4,0.7,2.3,0.7
		C418.5,117.7,419.5,117.4,420.3,116.8z"/>
	<path class="st4" d="M437.2,105.7c0.9,0.9,1.4,2.1,1.4,3.5v9.7c0,0.2-0.1,0.3-0.3,0.3h-1.5c-0.2,0-0.3-0.1-0.3-0.3v-1.2
		c0,0,0-0.1,0-0.1c0,0-0.1,0-0.1,0c-0.5,0.6-1.1,1-1.9,1.3c-0.8,0.3-1.6,0.5-2.6,0.5c-1.4,0-2.5-0.3-3.5-1c-0.9-0.7-1.4-1.8-1.4-3.2
		c0-1.5,0.5-2.6,1.6-3.4c1.1-0.8,2.5-1.3,4.4-1.3h3.4c0.1,0,0.1,0,0.1-0.1v-1.1c0-1-0.3-1.8-0.8-2.3c-0.6-0.6-1.4-0.9-2.6-0.9
		c-0.9,0-1.7,0.2-2.3,0.5s-0.9,0.9-1.1,1.5c-0.1,0.2-0.2,0.3-0.3,0.3l-1.6-0.2c-0.2,0-0.3-0.1-0.3-0.2c0.2-1.1,0.7-2,1.7-2.6
		s2.3-1,3.8-1C434.9,104.3,436.2,104.8,437.2,105.7z M435.3,116.8c0.8-0.6,1.2-1.3,1.2-2.3v-2.3c0-0.1,0-0.1-0.1-0.1h-3
		c-1.3,0-2.3,0.3-3.1,0.8c-0.8,0.5-1.2,1.2-1.2,2.2c0,0.9,0.3,1.5,0.9,1.9c0.6,0.4,1.4,0.7,2.3,0.7
		C433.5,117.7,434.5,117.4,435.3,116.8z"/>
	<path class="st4" d="M450.6,104.8c0.2,0.1,0.2,0.2,0.2,0.4l-0.3,1.4c-0.1,0.2-0.2,0.3-0.4,0.2c-0.3-0.1-0.7-0.2-1.1-0.2l-0.4,0
		c-1,0-1.8,0.4-2.5,1.1c-0.7,0.7-1,1.6-1,2.7v8.6c0,0.2-0.1,0.3-0.3,0.3h-1.5c-0.2,0-0.3-0.1-0.3-0.3v-14.1c0-0.2,0.1-0.3,0.3-0.3
		h1.5c0.2,0,0.3,0.1,0.3,0.3v1.8c0,0.1,0,0.1,0,0.1c0,0,0.1,0,0.1,0c0.4-0.7,0.9-1.3,1.6-1.7c0.6-0.4,1.4-0.6,2.2-0.6
		C449.6,104.4,450.1,104.5,450.6,104.8z"/>
	<path class="st4" d="M455.6,118.8c-0.8-0.3-1.5-0.8-1.9-1.4s-0.7-1.2-0.7-1.9v-0.3c0-0.2,0.1-0.3,0.3-0.3h1.4
		c0.2,0,0.3,0.1,0.3,0.3v0.2c0,0.6,0.3,1.2,1,1.7s1.5,0.7,2.5,0.7c1,0,1.8-0.2,2.4-0.7c0.6-0.5,0.9-1,0.9-1.7c0-0.5-0.2-0.9-0.5-1.2
		c-0.3-0.3-0.7-0.6-1.1-0.7s-1.1-0.4-2-0.7c-1.1-0.3-2-0.6-2.7-0.9c-0.7-0.3-1.3-0.7-1.8-1.3s-0.7-1.3-0.7-2.1c0-1.2,0.5-2.2,1.4-3
		c1-0.7,2.2-1.1,3.8-1.1c1.1,0,2,0.2,2.8,0.5c0.8,0.3,1.5,0.8,1.9,1.4s0.7,1.3,0.7,2v0.1c0,0.2-0.1,0.3-0.3,0.3h-1.4
		c-0.2,0-0.3-0.1-0.3-0.3v-0.1c0-0.7-0.3-1.2-0.9-1.7s-1.5-0.7-2.5-0.7c-1,0-1.8,0.2-2.4,0.6c-0.6,0.4-0.9,0.9-0.9,1.6
		c0,0.7,0.3,1.2,0.9,1.5s1.5,0.7,2.7,1c1.1,0.3,2,0.6,2.7,0.9s1.3,0.7,1.8,1.3c0.5,0.6,0.8,1.3,0.8,2.2c0,1.3-0.5,2.3-1.5,3
		c-1,0.8-2.3,1.1-3.9,1.1C457.4,119.4,456.4,119.2,455.6,118.8z"/>
</g>
</svg>
