<svg version="1.1" id="Laag_1" xmlns="http://www.w3.org/2000/svg" xmlns:xlink="http://www.w3.org/1999/xlink" x="0px" y="0px"
	 viewBox="0 0 531.1 129" style="enable-background:new 0 0 531.1 129;" xml:space="preserve">
<style type="text/css">
	.st0{fill:#0E3563;}
	.st1{fill:#3096B8;}
	.st2{fill:none;}
	.st3{fill:#FFFFFF;}
	.st4{fill:#475782;}
</style>
<g>
	<g>
		<g>
			<g>
				<path class="st0" d="M224.6,64.9h-14.7l-2.5,7.2h-6l12.6-35.2h6.7l12.6,35.2h-6.1L224.6,64.9z M217.2,43.9l-5.8,16.3H223
					L217.2,43.9z"/>
			</g>
			<g>
				<path class="st0" d="M254.6,36.5c7.3,0,13.7,3.7,16.3,10.6h-6.9c-1.9-3.7-5.2-5.5-9.4-5.5c-7,0-12,5-12,12.9
					c0,7.9,5.1,12.9,12,12.9c4.2,0,7.5-1.8,9.4-5.5h6.9c-2.7,6.9-9,10.5-16.3,10.5c-9.9,0-18-7.4-18-17.9
					C236.7,44,244.7,36.5,254.6,36.5z"/>
			</g>
			<g>
				<path class="st0" d="M283.5,56.4v15.7h-5.8V37h5.8v16l13.7-16h7.2l-15.3,17.6l15.5,17.5h-7.5L283.5,56.4z"/>
			</g>
			<g>
				<path class="st0" d="M322.8,37h20.7v4.7h-14.9v10.4h11.6v4.7h-11.6v15.4h-5.8V37z"/>
			</g>
			<g>
				<path class="st0" d="M361,37c8.3,0,12.4,4.8,12.4,10.5c0,4.1-2.2,8.6-8.1,10.1l8.7,14.6h-6.9L359,58.1h-4.4v14.1h-5.8V37H361z
					 M361,41.7h-6.4v11.8h6.4c4.5,0,6.5-2.5,6.5-6C367.5,44,365.5,41.7,361,41.7z"/>
			</g>
			<g>
				<path class="st0" d="M400.2,41.6h-13.7V52h12.1v4.7h-12.1v10.8h13.7v4.7h-19.4V36.9h19.4V41.6z"/>
			</g>
			<g>
				<path class="st0" d="M436.2,36.9v35.2h-5.8L413,45.9v26.2h-5.8V36.9h5.8l17.3,26.2V36.9H436.2z"/>
			</g>
			<g>
				<path class="st0" d="M449.5,56.4v15.7h-5.8V37h5.8v16l13.7-16h7.2l-15.3,17.6l15.5,17.5h-7.5L449.5,56.4z"/>
			</g>
			<g>
				<path class="st0" d="M495.1,41.6h-13.7V52h12.1v4.7h-12.1v10.8h13.7v4.7h-19.4V36.9h19.4V41.6z"/>
			</g>
			<g>
				<path class="st0" d="M531.1,36.9v35.2h-5.8L508,45.9v26.2h-5.8V36.9h5.8l17.3,26.2V36.9H531.1z"/>
			</g>
		</g>
		<path class="st0" d="M188.9,36.4v23.9c0,4.4-2.4,7.1-6.4,7.1c-2.7,0-4.9-1.1-6.7-3.2l-0.4-0.5l-3.6,4.3l0.3,0.4
			c2.7,3.1,6.2,4.7,10.4,4.7c3.6,0,6.6-1.1,8.8-3.3c2.3-2.2,3.4-5.3,3.4-9.2V36.4H188.9z"/>
	</g>
	<g>
		<g>
			<polygon class="st1" points="63.8,129 129,63.8 96.4,31.2 80.1,47.5 63.8,47.5 63.8,63.8 80.1,63.8 80.1,80.1 63.8,80.1 
				63.8,112.7 55.7,120.8 			"/>
			<path class="st2" d="M61.5,1L0.9,61.5c-1.3,1.3-1.3,3.3,0,4.6l60.6,60.6c1.3,1.3,3.3,1.3,4.6,0l60.6-60.6c1.3-1.3,1.3-3.3,0-4.6
				L66.1,1c-0.6-0.6-1.5-1-2.3-1C63,0,62.1,0.3,61.5,1"/>
			<polygon class="st3" points="43.4,109.2 55.4,121.1 63.8,112.7 63.8,80.1 80.1,80.1 80.1,63.8 63.8,63.8 63.8,47.5 80.1,47.5 
				96.4,31.2 43.4,31.2 			"/>
			<path class="st0" d="M43.5,31.2h53L66.1,1c-1.3-1.3-3.3-1.3-4.6,0L0.9,61.5c-1.3,1.3-1.3,3.3,0,4.6l42.5,42.5V31.2z"/>
		</g>
	</g>
	<g>
		<g>
			<g>
				<path class="st4" d="M255,102c-0.4,0.4-0.5,1.2-0.5,2.3v0.5c0,0.1,0,0.1,0.1,0.1h3c0.2,0,0.3,0.1,0.3,0.3v1.2
					c0,0.2-0.1,0.3-0.3,0.3h-3c-0.1,0-0.1,0-0.1,0.1v11.6c0,0.2-0.1,0.3-0.3,0.3h-1.4c-0.2,0-0.3-0.1-0.3-0.3v-11.6
					c0-0.1,0-0.1-0.1-0.1h-1.8c-0.2,0-0.3-0.1-0.3-0.3v-1.2c0-0.2,0.1-0.3,0.3-0.3h1.8c0.1,0,0.1,0,0.1-0.1v-0.7
					c0-1.1,0.1-2,0.4-2.7c0.3-0.6,0.7-1.1,1.3-1.4s1.5-0.4,2.6-0.4h0.8c0.2,0,0.3,0.1,0.3,0.3v1.1c0,0.2-0.1,0.3-0.3,0.3H257
					C256,101.4,255.4,101.6,255,102z M261.5,102c-0.3-0.3-0.4-0.7-0.4-1.1c0-0.5,0.1-0.8,0.4-1.1c0.3-0.3,0.7-0.4,1.1-0.4
					s0.8,0.1,1.1,0.4c0.3,0.3,0.4,0.6,0.4,1.1c0,0.4-0.1,0.8-0.4,1.1s-0.7,0.4-1.1,0.4S261.8,102.3,261.5,102z M261.6,118.4v-13.2
					c0-0.2,0.1-0.3,0.3-0.3h1.4c0.2,0,0.3,0.1,0.3,0.3v13.2c0,0.2-0.1,0.3-0.3,0.3h-1.4C261.6,118.7,261.6,118.6,261.6,118.4z"/>
				<path class="st4" d="M277.8,106.1c0.9,0.9,1.3,2,1.3,3.4v9c0,0.2-0.1,0.3-0.3,0.3h-1.4c-0.2,0-0.3-0.1-0.3-0.3v-8.6
					c0-1-0.3-1.8-0.9-2.4c-0.6-0.6-1.4-1-2.4-1c-1,0-1.8,0.3-2.4,0.9c-0.6,0.6-0.9,1.4-0.9,2.4v8.7c0,0.2-0.1,0.3-0.3,0.3h-1.4
					c-0.2,0-0.3-0.1-0.3-0.3v-13.2c0-0.2,0.1-0.3,0.3-0.3h1.4c0.2,0,0.3,0.1,0.3,0.3v1.2c0,0,0,0.1,0,0.1c0,0,0,0,0.1,0
					c0.8-1.1,2-1.7,3.7-1.7C275.8,104.8,277,105.2,277.8,106.1z"/>
				<path class="st4" d="M292.3,106c0.9,0.8,1.3,1.9,1.3,3.3v9.1c0,0.2-0.1,0.3-0.3,0.3h-1.4c-0.2,0-0.3-0.1-0.3-0.3v-1.1
					c0,0,0-0.1,0-0.1c0,0-0.1,0-0.1,0c-0.5,0.5-1,1-1.8,1.2c-0.7,0.3-1.5,0.4-2.4,0.4c-1.3,0-2.4-0.3-3.2-1c-0.9-0.7-1.3-1.7-1.3-3
					c0-1.4,0.5-2.4,1.5-3.2c1-0.8,2.4-1.2,4.1-1.2h3.2c0.1,0,0.1,0,0.1-0.1v-1c0-0.9-0.3-1.7-0.8-2.2c-0.5-0.5-1.3-0.8-2.4-0.8
					c-0.9,0-1.6,0.2-2.1,0.5c-0.5,0.3-0.9,0.8-1,1.4c-0.1,0.2-0.2,0.3-0.3,0.2l-1.5-0.2c-0.2,0-0.3-0.1-0.2-0.2
					c0.1-1,0.7-1.8,1.6-2.5c0.9-0.6,2.1-1,3.5-1C290.1,104.7,291.4,105.2,292.3,106z M290.5,116.5c0.8-0.5,1.2-1.3,1.2-2.2v-2.1
					c0-0.1,0-0.1-0.1-0.1h-2.9c-1.2,0-2.2,0.2-2.9,0.7c-0.7,0.5-1.1,1.2-1.1,2c0,0.8,0.3,1.4,0.8,1.8c0.6,0.4,1.3,0.6,2.2,0.6
					C288.8,117.3,289.7,117,290.5,116.5z"/>
				<path class="st4" d="M307.2,106.1c0.9,0.9,1.3,2,1.3,3.4v9c0,0.2-0.1,0.3-0.3,0.3h-1.4c-0.2,0-0.3-0.1-0.3-0.3v-8.6
					c0-1-0.3-1.8-0.9-2.4c-0.6-0.6-1.4-1-2.4-1c-1,0-1.8,0.3-2.4,0.9c-0.6,0.6-0.9,1.4-0.9,2.4v8.7c0,0.2-0.1,0.3-0.3,0.3h-1.4
					c-0.2,0-0.3-0.1-0.3-0.3v-13.2c0-0.2,0.1-0.3,0.3-0.3h1.4c0.2,0,0.3,0.1,0.3,0.3v1.2c0,0,0,0.1,0,0.1c0,0,0,0,0.1,0
					c0.8-1.1,2-1.7,3.7-1.7C305.2,104.8,306.4,105.2,307.2,106.1z"/>
				<path class="st4" d="M314.8,117.9c-0.9-0.7-1.6-1.6-1.9-2.8c-0.2-0.8-0.4-1.9-0.4-3.4c0-1.3,0.1-2.4,0.4-3.3
					c0.3-1.1,1-2,1.9-2.7c0.9-0.7,2.1-1,3.4-1c1.3,0,2.5,0.3,3.4,1c1,0.7,1.6,1.5,1.9,2.5c0.1,0.3,0.1,0.6,0.2,0.8v0.1
					c0,0.1-0.1,0.2-0.2,0.2l-1.4,0.2H322c-0.1,0-0.2-0.1-0.2-0.2l-0.1-0.4c-0.2-0.7-0.6-1.3-1.2-1.8s-1.4-0.7-2.3-0.7
					c-0.9,0-1.7,0.2-2.3,0.7c-0.6,0.5-1,1.1-1.2,1.9c-0.2,0.7-0.2,1.6-0.2,2.7c0,1.2,0.1,2.1,0.2,2.8c0.2,0.8,0.6,1.5,1.2,1.9
					c0.6,0.5,1.4,0.7,2.3,0.7c0.9,0,1.7-0.2,2.3-0.7c0.6-0.5,1-1.1,1.2-1.8v-0.1l0-0.1c0-0.2,0.1-0.3,0.3-0.2l1.3,0.2
					c0.2,0,0.3,0.1,0.2,0.3l-0.1,0.5c-0.3,1.1-0.9,1.9-1.9,2.6c-1,0.7-2.1,1-3.5,1C316.8,119,315.7,118.6,314.8,117.9z"/>
				<path class="st4" d="M327.7,102c-0.3-0.3-0.4-0.7-0.4-1.1c0-0.5,0.1-0.8,0.4-1.1c0.3-0.3,0.7-0.4,1.1-0.4s0.8,0.1,1.1,0.4
					c0.3,0.3,0.4,0.6,0.4,1.1c0,0.4-0.1,0.8-0.4,1.1s-0.7,0.4-1.1,0.4S328,102.3,327.7,102z M327.8,118.4v-13.2
					c0-0.2,0.1-0.3,0.3-0.3h1.4c0.2,0,0.3,0.1,0.3,0.3v13.2c0,0.2-0.1,0.3-0.3,0.3H328C327.9,118.7,327.8,118.6,327.8,118.4z"/>
				<path class="st4" d="M345.5,111.4v0.9c0,0.2-0.1,0.3-0.3,0.3h-8.8c-0.1,0-0.1,0-0.1,0.1c0,1,0.1,1.6,0.2,1.9
					c0.2,0.8,0.6,1.5,1.3,1.9c0.7,0.5,1.5,0.7,2.5,0.7c0.8,0,1.4-0.2,2-0.5c0.6-0.3,1-0.8,1.4-1.5c0.1-0.2,0.2-0.2,0.4-0.1l1.1,0.6
					c0.1,0.1,0.2,0.2,0.1,0.4c-0.5,0.9-1.1,1.6-2,2.1c-0.9,0.5-2,0.7-3.1,0.7c-1.3,0-2.4-0.3-3.2-0.9c-0.9-0.6-1.5-1.4-1.9-2.5
					c-0.3-0.9-0.5-2.1-0.5-3.8c0-0.8,0-1.4,0-1.9c0-0.5,0.1-0.9,0.2-1.3c0.3-1.2,0.9-2.1,1.9-2.8c0.9-0.7,2.1-1.1,3.4-1.1
					c1.7,0,2.9,0.4,3.8,1.3c0.9,0.8,1.4,2,1.7,3.5C345.5,110,345.5,110.7,345.5,111.4z M337.7,107.1c-0.6,0.5-1,1.1-1.2,1.9
					c-0.1,0.4-0.2,1-0.2,1.9c0,0.1,0,0.1,0.1,0.1h7c0.1,0,0.1,0,0.1-0.1c0-0.8-0.1-1.4-0.2-1.7c-0.2-0.8-0.6-1.5-1.2-1.9
					c-0.6-0.5-1.4-0.7-2.3-0.7C339,106.4,338.3,106.7,337.7,107.1z"/>
				<path class="st4" d="M360.4,111.4v0.9c0,0.2-0.1,0.3-0.3,0.3h-8.8c-0.1,0-0.1,0-0.1,0.1c0,1,0.1,1.6,0.2,1.9
					c0.2,0.8,0.6,1.5,1.3,1.9c0.7,0.5,1.5,0.7,2.5,0.7c0.8,0,1.4-0.2,2-0.5c0.6-0.3,1-0.8,1.4-1.5c0.1-0.2,0.2-0.2,0.4-0.1l1.1,0.6
					c0.1,0.1,0.2,0.2,0.1,0.4c-0.5,0.9-1.1,1.6-2,2.1c-0.9,0.5-2,0.7-3.1,0.7c-1.3,0-2.4-0.3-3.2-0.9c-0.9-0.6-1.5-1.4-1.9-2.5
					c-0.3-0.9-0.5-2.1-0.5-3.8c0-0.8,0-1.4,0-1.9c0-0.5,0.1-0.9,0.2-1.3c0.3-1.2,0.9-2.1,1.9-2.8c0.9-0.7,2.1-1.1,3.4-1.1
					c1.7,0,2.9,0.4,3.8,1.3c0.9,0.8,1.4,2,1.7,3.5C360.4,110,360.4,110.7,360.4,111.4z M352.6,107.1c-0.6,0.5-1,1.1-1.2,1.9
					c-0.1,0.4-0.2,1-0.2,1.9c0,0.1,0,0.1,0.1,0.1h7c0.1,0,0.1,0,0.1-0.1c0-0.8-0.1-1.4-0.2-1.7c-0.2-0.8-0.6-1.5-1.2-1.9
					c-0.6-0.5-1.4-0.7-2.3-0.7C353.9,106.4,353.2,106.7,352.6,107.1z"/>
				<path class="st4" d="M364.7,118.5V100c0-0.2,0.1-0.3,0.3-0.3h1.4c0.2,0,0.3,0.1,0.3,0.3v18.5c0,0.2-0.1,0.3-0.3,0.3h-1.4
					C364.7,118.7,364.7,118.6,364.7,118.5z"/>
				<path class="st4" d="M385.7,106c0.9,0.8,1.3,1.9,1.3,3.3v9.1c0,0.2-0.1,0.3-0.3,0.3h-1.4c-0.2,0-0.3-0.1-0.3-0.3v-1.1
					c0,0,0-0.1,0-0.1c0,0-0.1,0-0.1,0c-0.5,0.5-1,1-1.8,1.2c-0.7,0.3-1.5,0.4-2.4,0.4c-1.3,0-2.4-0.3-3.2-1c-0.9-0.7-1.3-1.7-1.3-3
					c0-1.4,0.5-2.4,1.5-3.2c1-0.8,2.4-1.2,4.1-1.2h3.2c0.1,0,0.1,0,0.1-0.1v-1c0-0.9-0.3-1.7-0.8-2.2c-0.5-0.5-1.3-0.8-2.4-0.8
					c-0.9,0-1.6,0.2-2.1,0.5c-0.5,0.3-0.9,0.8-1,1.4c-0.1,0.2-0.2,0.3-0.3,0.2l-1.5-0.2c-0.2,0-0.3-0.1-0.2-0.2
					c0.1-1,0.7-1.8,1.6-2.5c0.9-0.6,2.1-1,3.5-1C383.6,104.7,384.8,105.2,385.7,106z M384,116.5c0.8-0.5,1.2-1.3,1.2-2.2v-2.1
					c0-0.1,0-0.1-0.1-0.1h-2.9c-1.2,0-2.2,0.2-2.9,0.7c-0.7,0.5-1.1,1.2-1.1,2c0,0.8,0.3,1.4,0.8,1.8c0.6,0.4,1.3,0.6,2.2,0.6
					C382.2,117.3,383.2,117,384,116.5z"/>
				<path class="st4" d="M400.3,99.7h1.4c0.2,0,0.3,0.1,0.3,0.3v18.5c0,0.2-0.1,0.3-0.3,0.3h-1.4c-0.2,0-0.3-0.1-0.3-0.3v-1.1
					c0,0,0-0.1,0-0.1c0,0-0.1,0-0.1,0c-0.4,0.5-0.9,0.9-1.5,1.2c-0.6,0.3-1.2,0.4-2,0.4c-1.3,0-2.3-0.3-3.2-1
					c-0.9-0.7-1.5-1.5-1.8-2.7c-0.3-0.8-0.4-2-0.4-3.5c0-1.5,0.1-2.6,0.3-3.4c0.3-1.2,0.9-2.1,1.8-2.7c0.9-0.7,1.9-1,3.2-1
					c0.7,0,1.4,0.1,2,0.4c0.6,0.3,1.1,0.7,1.5,1.2c0,0,0.1,0.1,0.1,0c0,0,0,0,0-0.1V100C400,99.8,400.1,99.7,400.3,99.7z
					 M399.9,113.9c0.1-0.5,0.1-1.2,0.1-2c0-0.9,0-1.6-0.1-2.1c-0.1-0.5-0.2-0.9-0.4-1.3c-0.2-0.6-0.6-1.1-1.1-1.5
					c-0.5-0.4-1.1-0.6-1.8-0.6c-0.7,0-1.4,0.2-1.9,0.5c-0.5,0.4-0.9,0.8-1.1,1.4c-0.2,0.4-0.4,0.8-0.5,1.3c-0.1,0.5-0.1,1.2-0.1,2.1
					c0,0.9,0,1.5,0.1,2c0.1,0.5,0.2,0.9,0.4,1.3c0.2,0.7,0.6,1.2,1.2,1.6c0.6,0.4,1.2,0.6,2,0.6c0.7,0,1.3-0.2,1.8-0.6
					c0.5-0.4,0.9-0.9,1.1-1.5C399.7,114.8,399.8,114.4,399.9,113.9z"/>
				<path class="st4" d="M409.9,118.5l-4.5-13.3l0-0.1c0-0.1,0.1-0.2,0.2-0.2h1.6c0.2,0,0.3,0.1,0.3,0.2l3.4,10.7c0,0,0,0.1,0.1,0.1
					s0.1,0,0.1-0.1l3.4-10.7c0.1-0.1,0.2-0.2,0.3-0.2l1.6,0c0.2,0,0.3,0.1,0.2,0.3l-4.5,13.2c-0.1,0.1-0.2,0.2-0.3,0.2h-1.6
					C410.1,118.7,410,118.7,409.9,118.5z"/>
				<path class="st4" d="M420.3,102c-0.3-0.3-0.4-0.7-0.4-1.1c0-0.5,0.1-0.8,0.4-1.1c0.3-0.3,0.7-0.4,1.1-0.4c0.4,0,0.8,0.1,1.1,0.4
					c0.3,0.3,0.4,0.6,0.4,1.1c0,0.4-0.1,0.8-0.4,1.1s-0.7,0.4-1.1,0.4C421,102.5,420.6,102.3,420.3,102z M420.4,118.4v-13.2
					c0-0.2,0.1-0.3,0.3-0.3h1.4c0.2,0,0.3,0.1,0.3,0.3v13.2c0,0.2-0.1,0.3-0.3,0.3h-1.4C420.5,118.7,420.4,118.6,420.4,118.4z"/>
				<path class="st4" d="M438.1,111.4v0.9c0,0.2-0.1,0.3-0.3,0.3H429c-0.1,0-0.1,0-0.1,0.1c0,1,0.1,1.6,0.2,1.9
					c0.2,0.8,0.6,1.5,1.3,1.9c0.7,0.5,1.5,0.7,2.5,0.7c0.8,0,1.4-0.2,2-0.5c0.6-0.3,1-0.8,1.4-1.5c0.1-0.2,0.2-0.2,0.4-0.1l1.1,0.6
					c0.1,0.1,0.2,0.2,0.1,0.4c-0.5,0.9-1.1,1.6-2,2.1c-0.9,0.5-2,0.7-3.1,0.7c-1.3,0-2.4-0.3-3.2-0.9c-0.9-0.6-1.5-1.4-1.9-2.5
					c-0.3-0.9-0.5-2.1-0.5-3.8c0-0.8,0-1.4,0-1.9c0-0.5,0.1-0.9,0.2-1.3c0.3-1.2,0.9-2.1,1.9-2.8c0.9-0.7,2.1-1.1,3.4-1.1
					c1.7,0,2.9,0.4,3.8,1.3c0.9,0.8,1.4,2,1.7,3.5C438.1,110,438.1,110.7,438.1,111.4z M430.3,107.1c-0.6,0.5-1,1.1-1.2,1.9
					c-0.1,0.4-0.2,1-0.2,1.9c0,0.1,0,0.1,0.1,0.1h7c0.1,0,0.1,0,0.1-0.1c0-0.8-0.1-1.4-0.2-1.7c-0.2-0.8-0.6-1.5-1.2-1.9
					c-0.6-0.5-1.4-0.7-2.3-0.7C431.6,106.4,430.9,106.7,430.3,107.1z"/>
				<path class="st4" d="M443.9,118.4c-0.8-0.3-1.4-0.8-1.8-1.3c-0.4-0.5-0.6-1.2-0.6-1.8v-0.3c0-0.2,0.1-0.3,0.3-0.3h1.3
					c0.2,0,0.3,0.1,0.3,0.3v0.2c0,0.6,0.3,1.1,0.9,1.6c0.6,0.4,1.4,0.7,2.4,0.7c0.9,0,1.7-0.2,2.3-0.6c0.6-0.4,0.9-1,0.9-1.6
					c0-0.5-0.1-0.8-0.4-1.1s-0.7-0.5-1.1-0.7c-0.4-0.2-1-0.4-1.9-0.6c-1-0.3-1.9-0.6-2.5-0.9c-0.7-0.3-1.2-0.7-1.6-1.2
					c-0.4-0.5-0.7-1.2-0.7-2c0-1.2,0.5-2.1,1.4-2.8c0.9-0.7,2.1-1,3.6-1c1,0,1.9,0.2,2.7,0.5c0.8,0.3,1.4,0.8,1.8,1.3
					c0.4,0.6,0.6,1.2,0.6,1.9v0.1c0,0.2-0.1,0.3-0.3,0.3H450c-0.2,0-0.3-0.1-0.3-0.3v-0.1c0-0.6-0.3-1.1-0.9-1.6
					c-0.6-0.4-1.4-0.6-2.4-0.6c-0.9,0-1.7,0.2-2.2,0.6c-0.6,0.4-0.8,0.9-0.8,1.5c0,0.6,0.3,1.1,0.8,1.4c0.5,0.3,1.4,0.7,2.5,1
					c1.1,0.3,1.9,0.6,2.6,0.9c0.7,0.3,1.2,0.7,1.7,1.2c0.5,0.5,0.7,1.2,0.7,2c0,1.2-0.5,2.1-1.4,2.8c-0.9,0.7-2.2,1.1-3.7,1.1
					C445.6,118.9,444.7,118.7,443.9,118.4z"/>
			</g>
		</g>
	</g>
</g>
</svg>
