
<svg version="1.1" id="Laag_1" xmlns="http://www.w3.org/2000/svg" xmlns:xlink="http://www.w3.org/1999/xlink" x="0px" y="0px"
	 viewBox="0 0 531.1 129" style="enable-background:new 0 0 531.1 129;" xml:space="preserve">
<style type="text/css">
	.st0{fill:#475782;}
	.st1{fill:#0E3563;}
	.st2{fill:#3096B8;}
	.st3{fill:none;}
	.st4{fill:#FFFFFF;}
</style>
<g>
	<g>
		<path class="st0" d="M227.9,104.4c-1,0-1.8,0.2-2.6,0.6c-0.8,0.4-1.3,1-1.8,1.8h-0.1c-0.4-0.8-0.9-1.3-1.6-1.7
			c-0.7-0.4-1.5-0.6-2.5-0.6c-0.8,0-1.5,0.1-2.2,0.4c-0.7,0.3-1.2,0.7-1.6,1.2l-0.1,0l0-0.1v-1.1c0-0.2-0.1-0.3-0.3-0.3h-1.5
			c-0.2,0-0.3,0.1-0.3,0.3v13.9c0,0.2,0.1,0.3,0.3,0.3h1.5c0.2,0,0.3-0.1,0.3-0.3v-9.2c0-1,0.3-1.8,0.9-2.5c0.6-0.6,1.4-0.9,2.4-0.9
			c1,0,1.8,0.3,2.4,0.9c0.6,0.6,0.9,1.4,0.9,2.5v9.2c0,0.2,0.1,0.3,0.3,0.3h1.5c0.2,0,0.3-0.1,0.3-0.3v-9.2c0-1,0.3-1.8,0.9-2.5
			c0.6-0.6,1.4-0.9,2.4-0.9c1,0,1.8,0.3,2.4,0.9c0.6,0.6,0.9,1.4,0.9,2.5v9.2c0,0.2,0.1,0.3,0.3,0.3h1.4c0.2,0,0.3-0.1,0.3-0.3v-9.6
			c0-1.5-0.4-2.7-1.2-3.5C230.5,104.9,229.3,104.4,227.9,104.4"/>
		<path class="st0" d="M241.5,117.5c-0.9,0-1.7-0.2-2.3-0.6c-0.6-0.4-0.9-1.1-0.9-1.9c0-0.9,0.4-1.6,1.1-2.1c0.8-0.5,1.8-0.8,3-0.8
			h3l0.1,0.1v2.2c0,0.9-0.4,1.7-1.2,2.3C243.6,117.3,242.6,117.5,241.5,117.5 M242.3,104.4c-1.5,0-2.7,0.3-3.7,1
			c-1,0.7-1.6,1.5-1.7,2.6c0,0.1,0,0.2,0.3,0.2l1.5,0.2c0,0,0,0,0,0c0.1,0,0.2-0.1,0.3-0.3c0.1-0.6,0.5-1.1,1.1-1.5
			c0.6-0.4,1.3-0.5,2.2-0.5c1.1,0,2,0.3,2.5,0.8c0.5,0.6,0.8,1.3,0.8,2.3v1.1l-0.1,0.1h-3.3c-1.8,0-3.3,0.4-4.3,1.2
			c-1,0.8-1.6,2-1.6,3.4c0,1.4,0.5,2.5,1.4,3.1c0.9,0.7,2,1,3.4,1c0.9,0,1.8-0.1,2.5-0.4c0.8-0.3,1.4-0.7,1.9-1.3l0.1,0l0,0.1v1.2
			c0,0.2,0.1,0.3,0.3,0.3h1.5c0.2,0,0.3-0.1,0.3-0.3v-9.6c0-1.4-0.5-2.6-1.4-3.5C245.3,104.8,244,104.4,242.3,104.4"/>
		<path class="st0" d="M254,99.1h-1.5c-0.2,0-0.3,0.1-0.3,0.3v19.4c0,0.2,0.1,0.3,0.3,0.3h1.5c0.2,0,0.3-0.1,0.3-0.3v-4.8l0.1-0.1
			l3.1-3.3l0.1,0l3.7,8.3c0.1,0.2,0.2,0.2,0.3,0.2h1.5c0.2,0,0.3-0.1,0.3-0.2l0-0.1l-4.4-9.6l0-0.1l3.6-4l0.1-0.2
			c0-0.1-0.1-0.1-0.2-0.1h-1.7c-0.1,0-0.2,0-0.3,0.1l-6,6.3l-0.1,0l0-0.1V99.4C254.3,99.2,254.2,99.1,254,99.1"/>
		<path class="st0" d="M268.2,110.9l-0.1-0.1c0-0.9,0.1-1.5,0.2-1.9c0.2-0.8,0.6-1.5,1.2-2c0.6-0.5,1.4-0.7,2.3-0.7
			c1,0,1.8,0.3,2.4,0.8c0.6,0.5,1.1,1.2,1.3,2c0.1,0.4,0.1,1,0.2,1.8l-0.1,0.1H268.2 M271.8,104.4c-1.4,0-2.6,0.4-3.5,1.1
			c-1,0.7-1.6,1.7-2,3c-0.1,0.4-0.2,0.9-0.2,1.4c0,0.5,0,1.2,0,2c0,1.7,0.2,3,0.5,3.9c0.4,1.1,1.1,2,2,2.6c0.9,0.6,2,0.9,3.4,1
			c1.2,0,2.3-0.3,3.3-0.8c1-0.5,1.7-1.2,2.1-2.2c0.1-0.2,0-0.3-0.1-0.4l-1.1-0.7c-0.1,0-0.1-0.1-0.2-0.1c-0.1,0-0.2,0.1-0.2,0.2
			c-0.3,0.7-0.8,1.2-1.4,1.5c-0.6,0.4-1.3,0.5-2.1,0.5c-1.1,0-1.9-0.2-2.6-0.7c-0.7-0.5-1.1-1.2-1.3-2c-0.1-0.3-0.1-1-0.2-2l0.1-0.1
			h9.2c0.2,0,0.3-0.1,0.3-0.3v-0.9c0-0.8,0-1.5-0.1-2c-0.2-1.6-0.8-2.8-1.7-3.7C274.9,104.8,273.5,104.4,271.8,104.4"/>
		<path class="st0" d="M283.8,99.1h-1.5c-0.2,0-0.3,0.1-0.3,0.3v19.4c0,0.2,0.1,0.3,0.3,0.3h1.5c0.2,0,0.3-0.1,0.3-0.3V99.4
			C284.1,99.2,284,99.1,283.8,99.1"/>
		<path class="st0" d="M293.3,117.5c-0.9,0-1.7-0.2-2.3-0.6c-0.6-0.4-0.9-1.1-0.9-1.9c0-0.9,0.4-1.6,1.1-2.1c0.8-0.5,1.8-0.8,3-0.8
			h3l0.1,0.1v2.2c0,0.9-0.4,1.7-1.2,2.3C295.4,117.3,294.4,117.5,293.3,117.5 M294.1,104.4c-1.5,0-2.7,0.3-3.7,1
			c-1,0.7-1.6,1.5-1.7,2.6c0,0.1,0,0.2,0.3,0.2l1.5,0.2c0,0,0,0,0,0c0.1,0,0.2-0.1,0.3-0.3c0.1-0.6,0.5-1.1,1.1-1.5
			c0.6-0.4,1.3-0.5,2.2-0.5c1.1,0,2,0.3,2.5,0.8c0.5,0.6,0.8,1.3,0.8,2.3v1.1l-0.1,0.1H294c-1.8,0-3.3,0.4-4.3,1.2
			c-1,0.8-1.6,2-1.6,3.4c0,1.4,0.5,2.5,1.4,3.1c0.9,0.7,2,1,3.4,1c0.9,0,1.8-0.1,2.5-0.4c0.8-0.3,1.4-0.7,1.9-1.3l0.1,0l0,0.1v1.2
			c0,0.2,0.1,0.3,0.3,0.3h1.5c0.2,0,0.3-0.1,0.3-0.3v-9.6c0-1.4-0.5-2.6-1.4-3.5C297.1,104.8,295.8,104.4,294.1,104.4"/>
		<path class="st0" d="M308.3,117.5c-0.9,0-1.7-0.2-2.3-0.6c-0.6-0.4-0.9-1.1-0.9-1.9c0-0.9,0.4-1.6,1.1-2.1c0.8-0.5,1.8-0.8,3-0.8
			h3l0.1,0.1v2.2c0,0.9-0.4,1.7-1.2,2.3C310.4,117.3,309.4,117.5,308.3,117.5 M309.1,104.4c-1.5,0-2.7,0.3-3.7,1
			c-1,0.7-1.6,1.5-1.7,2.6c0,0.1,0,0.2,0.3,0.2l1.5,0.2c0,0,0,0,0,0c0.1,0,0.2-0.1,0.3-0.3c0.1-0.6,0.5-1.1,1.1-1.5
			c0.6-0.4,1.3-0.5,2.2-0.5c1.1,0,2,0.3,2.5,0.8c0.5,0.6,0.8,1.3,0.8,2.3v1.1l-0.1,0.1H309c-1.8,0-3.3,0.4-4.3,1.2
			c-1,0.8-1.6,2-1.6,3.4c0,1.4,0.5,2.5,1.4,3.1c0.9,0.7,2,1,3.4,1c0.9,0,1.8-0.1,2.5-0.4c0.8-0.3,1.4-0.7,1.9-1.3l0.1,0l0,0.1v1.2
			c0,0.2,0.1,0.3,0.3,0.3h1.5c0.2,0,0.3-0.1,0.3-0.3v-9.6c0-1.4-0.5-2.6-1.4-3.5C312.1,104.8,310.8,104.4,309.1,104.4"/>
		<path class="st0" d="M324.9,104.5c-0.8,0-1.5,0.2-2.2,0.6c-0.6,0.4-1.1,0.9-1.5,1.6l-0.1,0l0-0.1v-1.7c0-0.2-0.1-0.3-0.3-0.3h-1.5
			c-0.2,0-0.3,0.1-0.3,0.3v13.9c0,0.2,0.1,0.3,0.3,0.3h1.5c0.2,0,0.3-0.1,0.3-0.3v-8.4c0-1.1,0.3-1.9,1-2.6c0.6-0.7,1.5-1.1,2.5-1.1
			l0.4,0c0.4,0,0.8,0.1,1.1,0.2c0.1,0,0.1,0,0.1,0c0.1,0,0.2-0.1,0.2-0.2l0.3-1.4c0-0.2,0-0.3-0.2-0.4
			C326.1,104.6,325.5,104.5,324.9,104.5"/>
		<path class="st0" d="M334.4,104.5c-1.6,0-2.8,0.4-3.8,1.1c-1,0.7-1.4,1.7-1.4,2.9c0,0.8,0.2,1.5,0.7,2.1c0.5,0.5,1,1,1.7,1.3
			c0.7,0.3,1.6,0.6,2.6,0.9c0.9,0.3,1.6,0.5,2,0.7c0.4,0.2,0.8,0.4,1.1,0.7c0.3,0.3,0.5,0.7,0.5,1.2c0,0.7-0.3,1.2-0.9,1.7
			c-0.6,0.4-1.4,0.7-2.4,0.7c-1,0-1.8-0.2-2.5-0.7c-0.7-0.5-1-1-1-1.6v-0.2c0-0.2-0.1-0.3-0.3-0.3h-1.4c-0.2,0-0.3,0.1-0.3,0.3v0.3
			c0,0.7,0.2,1.3,0.7,1.9c0.4,0.6,1.1,1,1.9,1.4c0.8,0.3,1.8,0.5,2.8,0.5c1.6,0,2.9-0.4,3.8-1.1c1-0.7,1.5-1.7,1.5-3
			c0-0.9-0.2-1.6-0.7-2.1c-0.5-0.5-1.1-1-1.8-1.2c-0.7-0.3-1.6-0.6-2.7-0.9c-1.2-0.3-2.1-0.7-2.7-1c-0.6-0.3-0.9-0.8-0.9-1.5
			c0-0.7,0.3-1.2,0.9-1.6c0.6-0.4,1.4-0.6,2.3-0.6c1,0,1.9,0.2,2.5,0.7c0.6,0.4,0.9,1,0.9,1.6v0.1c0,0.2,0.1,0.3,0.3,0.3h1.3
			c0.2,0,0.3-0.1,0.3-0.3v-0.1c0-0.7-0.2-1.4-0.7-2c-0.4-0.6-1.1-1.1-1.9-1.4C336.4,104.7,335.4,104.5,334.4,104.5"/>
		<path class="st0" d="M355,117.5c-1.1,0-2-0.3-2.7-0.8c-0.6-0.5-1-1.2-1-2.1s0.3-1.7,0.9-2.5c0.6-0.7,1.4-1.5,2.6-2.2l0.1,0
			l2.4,2.8c0.3,0.3,0.7,0.7,1.2,1.4l1,1.2v0.2c-0.7,0.7-1.5,1.2-2.2,1.5C356.6,117.4,355.8,117.5,355,117.5 M355.3,107.4l-0.2,0
			c-1-1.2-1.6-2-1.9-2.5c-0.3-0.5-0.4-1-0.4-1.5c0-0.8,0.3-1.4,0.8-1.9c0.5-0.5,1.2-0.7,2.1-0.7c0.9,0,1.5,0.2,2.1,0.7
			c0.5,0.5,0.8,1.1,0.8,1.8c0,0.8-0.3,1.5-0.8,2.1C357.2,106,356.4,106.6,355.3,107.4 M355.6,98.9c-1.4,0-2.6,0.4-3.5,1.2
			c-0.9,0.8-1.3,1.8-1.3,3.1c0,0.7,0.2,1.4,0.5,2.1c0.4,0.7,1.1,1.7,2.2,3.1l0,0.1c-1.4,0.9-2.4,1.8-3.2,2.8
			c-0.8,0.9-1.1,2.1-1.1,3.4c0,1.5,0.5,2.6,1.6,3.4c1,0.8,2.4,1.2,4.1,1.2c1.1,0,2.1-0.2,3-0.6c0.9-0.4,1.8-1,2.8-1.8h0.2
			c0.4,0.5,0.9,1.1,1.7,1.9c0.1,0.1,0.2,0.2,0.3,0.2h1.7l0.2-0.1l0.1-0.1l-0.1-0.2l-0.5-0.6c-1.3-1.5-1.9-2.3-2-2.4l-0.1-0.2v-0.1
			c0.7-0.8,1.5-1.8,2.3-3c0.1-0.2,0.1-0.3-0.1-0.4l-1.1-0.6c-0.1,0-0.1-0.1-0.2-0.1c-0.1,0-0.2,0-0.2,0.1c-0.5,0.7-1.1,1.5-1.9,2.5
			h-0.2c-0.2-0.2-0.5-0.6-1-1.2c-1.3-1.5-2.4-2.8-3.3-3.9l0-0.1c1.3-0.9,2.3-1.7,3-2.6c0.7-0.9,1.1-1.9,1.1-3c0-1.3-0.5-2.3-1.4-3.2
			C358.3,99.3,357.1,98.9,355.6,98.9"/>
		<path class="st0" d="M379.6,117.5c-0.9,0-1.7-0.2-2.3-0.6c-0.6-0.4-0.9-1.1-0.9-1.9c0-0.9,0.4-1.6,1.1-2.1c0.8-0.5,1.8-0.8,3-0.8
			h3l0.1,0.1v2.2c0,0.9-0.4,1.7-1.2,2.3C381.7,117.3,380.7,117.5,379.6,117.5 M380.4,104.4c-1.5,0-2.7,0.3-3.7,1
			c-1,0.7-1.6,1.5-1.7,2.6c0,0.1,0,0.2,0.3,0.2l1.5,0.2c0,0,0,0,0,0c0.1,0,0.2-0.1,0.3-0.3c0.1-0.6,0.5-1.1,1.1-1.5
			c0.6-0.4,1.3-0.5,2.2-0.5c1.1,0,2,0.3,2.5,0.8c0.5,0.6,0.8,1.3,0.8,2.3v1.1l-0.1,0.1h-3.3c-1.8,0-3.3,0.4-4.3,1.2
			c-1,0.8-1.6,2-1.6,3.4c0,1.4,0.5,2.5,1.4,3.1c0.9,0.7,2,1,3.4,1c0.9,0,1.8-0.1,2.5-0.4c0.8-0.3,1.4-0.7,1.9-1.3l0.1,0l0,0.1v1.2
			c0,0.2,0.1,0.3,0.3,0.3h1.5c0.2,0,0.3-0.1,0.3-0.3v-9.6c0-1.4-0.5-2.6-1.4-3.5C383.4,104.8,382.1,104.4,380.4,104.4"/>
		<path class="st0" d="M395.8,117.5c-0.8,0-1.5-0.2-2.1-0.6c-0.6-0.4-1-0.9-1.2-1.6c-0.2-0.4-0.3-0.9-0.4-1.4
			c-0.1-0.5-0.1-1.2-0.1-2.1c0-0.9,0.1-1.7,0.2-2.2c0.1-0.5,0.3-1,0.5-1.4c0.2-0.6,0.6-1.1,1.2-1.5c0.6-0.4,1.2-0.6,2-0.6
			c0.7,0,1.3,0.2,1.9,0.6c0.5,0.4,0.9,0.9,1.1,1.6c0.2,0.4,0.3,0.9,0.4,1.4c0.1,0.5,0.1,1.2,0.1,2.2s0,1.6-0.1,2.1
			c-0.1,0.5-0.2,1-0.4,1.3c-0.2,0.7-0.6,1.2-1.1,1.6C397.2,117.3,396.5,117.5,395.8,117.5 M401.1,99.1h-1.5c-0.2,0-0.3,0.1-0.3,0.3
			v6.7l0,0.1l-0.1,0c-0.4-0.6-0.9-1-1.6-1.3c-0.6-0.3-1.3-0.4-2.1-0.4c-1.3,0-2.5,0.3-3.4,1c-0.9,0.7-1.5,1.6-1.9,2.9
			c-0.2,0.8-0.3,2-0.3,3.5c0,1.6,0.1,2.8,0.4,3.6c0.3,1.2,1,2.1,1.9,2.8c0.9,0.7,2,1,3.3,1c0.8,0,1.4-0.2,2.1-0.5
			c0.6-0.3,1.1-0.7,1.6-1.3l0.1,0l0,0.1v1.2c0,0.2,0.1,0.3,0.3,0.3h1.5c0.2,0,0.3-0.1,0.3-0.3V99.4
			C401.4,99.2,401.3,99.1,401.1,99.1"/>
		<path class="st0" d="M414.9,104.6c-0.2,0-0.3,0.1-0.3,0.2L411,116l-0.1,0.1l-0.1-0.1l-3.6-11.2c-0.1-0.2-0.2-0.2-0.3-0.2h-1.6
			c-0.2,0-0.3,0.1-0.3,0.2l0,0.1l4.7,13.9c0.1,0.2,0.2,0.2,0.3,0.2h1.7c0.2,0,0.3-0.1,0.3-0.2l4.7-13.9c0.1-0.2,0-0.3-0.2-0.3
			L414.9,104.6"/>
		<path class="st0" d="M422.4,104.6h-1.5c-0.2,0-0.3,0.1-0.3,0.3v13.9c0,0.2,0.1,0.3,0.3,0.3h1.5c0.2,0,0.3-0.1,0.3-0.3v-13.9
			C422.7,104.7,422.6,104.6,422.4,104.6 M421.7,98.8c-0.5,0-0.8,0.1-1.1,0.4c-0.3,0.3-0.5,0.7-0.5,1.2c0,0.5,0.2,0.8,0.5,1.1
			c0.3,0.3,0.7,0.5,1.1,0.5c0.5,0,0.8-0.2,1.1-0.5c0.3-0.3,0.5-0.7,0.5-1.1c0-0.5-0.2-0.9-0.5-1.2C422.5,99,422.2,98.8,421.7,98.8"
			/>
		<path class="st0" d="M432.6,104.5c-1.6,0-2.8,0.4-3.8,1.1c-1,0.7-1.4,1.7-1.4,2.9c0,0.8,0.2,1.5,0.7,2.1c0.5,0.5,1,1,1.7,1.3
			c0.7,0.3,1.6,0.6,2.6,0.9c0.9,0.3,1.6,0.5,2,0.7c0.4,0.2,0.8,0.4,1.1,0.7c0.3,0.3,0.5,0.7,0.5,1.2c0,0.7-0.3,1.2-0.9,1.7
			c-0.6,0.4-1.4,0.7-2.4,0.7c-1,0-1.8-0.2-2.5-0.7c-0.7-0.5-1-1-1-1.6v-0.2c0-0.2-0.1-0.3-0.3-0.3h-1.4c-0.2,0-0.3,0.1-0.3,0.3v0.3
			c0,0.7,0.2,1.3,0.7,1.9c0.4,0.6,1.1,1,1.9,1.4c0.8,0.3,1.8,0.5,2.8,0.5c1.6,0,2.9-0.4,3.8-1.1c1-0.7,1.5-1.7,1.5-3
			c0-0.9-0.2-1.6-0.7-2.1c-0.5-0.5-1.1-1-1.8-1.2c-0.7-0.3-1.6-0.6-2.7-0.9c-1.2-0.3-2.1-0.7-2.7-1c-0.6-0.3-0.9-0.8-0.9-1.5
			c0-0.7,0.3-1.2,0.9-1.6c0.6-0.4,1.4-0.6,2.3-0.6c1,0,1.9,0.2,2.5,0.7c0.6,0.4,0.9,1,0.9,1.6v0.1c0,0.2,0.1,0.3,0.3,0.3h1.3
			c0.2,0,0.3-0.1,0.3-0.3v-0.1c0-0.7-0.2-1.4-0.7-2c-0.4-0.6-1.1-1.1-1.9-1.4C434.6,104.7,433.7,104.5,432.6,104.5"/>
		<path class="st0" d="M443.9,110.9l-0.1-0.1c0-0.9,0.1-1.5,0.2-1.9c0.2-0.8,0.6-1.5,1.2-2c0.6-0.5,1.4-0.7,2.3-0.7
			c1,0,1.8,0.3,2.4,0.8c0.6,0.5,1.1,1.2,1.3,2c0.1,0.4,0.1,1,0.2,1.8l-0.1,0.1H443.9 M447.5,104.4c-1.4,0-2.6,0.4-3.5,1.1
			c-1,0.7-1.6,1.7-2,3c-0.1,0.4-0.2,0.9-0.2,1.4c0,0.5,0,1.2,0,2c0,1.7,0.2,3,0.5,3.9c0.4,1.1,1.1,2,2,2.6c0.9,0.6,2,0.9,3.4,1
			c1.2,0,2.3-0.3,3.3-0.8c1-0.5,1.7-1.2,2.1-2.2c0.1-0.2,0-0.3-0.1-0.4l-1.1-0.7c-0.1,0-0.1-0.1-0.2-0.1c-0.1,0-0.2,0.1-0.2,0.2
			c-0.3,0.7-0.8,1.2-1.4,1.5c-0.6,0.4-1.3,0.5-2.1,0.5c-1.1,0-1.9-0.2-2.6-0.7c-0.7-0.5-1.1-1.2-1.3-2c-0.1-0.3-0.1-1-0.2-2l0.1-0.1
			h9.2c0.2,0,0.3-0.1,0.3-0.3v-0.9c0-0.8,0-1.5-0.1-2c-0.2-1.6-0.8-2.8-1.7-3.7C450.6,104.8,449.2,104.4,447.5,104.4"/>
		<path class="st0" d="M468.3,104.6h-1.5c-0.2,0-0.3,0.1-0.3,0.3v9c0,1.1-0.3,1.9-1,2.6c-0.6,0.6-1.5,1-2.6,1c-1,0-1.9-0.3-2.5-1
			c-0.6-0.6-0.9-1.5-0.9-2.6v-9c0-0.2-0.1-0.3-0.3-0.3h-1.5c-0.2,0-0.3,0.1-0.3,0.3v9.6c0,1,0.2,1.8,0.7,2.5
			c0.4,0.7,1.1,1.2,1.8,1.6c0.8,0.4,1.6,0.6,2.5,0.6c1.7,0,3-0.6,3.8-1.8l0.1,0l0.1,0.1v1.2c0,0.2,0.1,0.3,0.3,0.3h1.5
			c0.2,0,0.3-0.1,0.3-0.3v-13.9C468.6,104.7,468.5,104.6,468.3,104.6"/>
		<path class="st0" d="M479.3,104.5c-0.8,0-1.5,0.2-2.2,0.6c-0.6,0.4-1.1,0.9-1.5,1.6l-0.1,0l0-0.1v-1.7c0-0.2-0.1-0.3-0.3-0.3h-1.5
			c-0.2,0-0.3,0.1-0.3,0.3v13.9c0,0.2,0.1,0.3,0.3,0.3h1.5c0.2,0,0.3-0.1,0.3-0.3v-8.4c0-1.1,0.3-1.9,1-2.6c0.6-0.7,1.5-1.1,2.5-1.1
			l0.4,0c0.4,0,0.8,0.1,1.1,0.2c0.1,0,0.1,0,0.1,0c0.1,0,0.2-0.1,0.2-0.2l0.3-1.4c0-0.2,0-0.3-0.2-0.4
			C480.5,104.6,480,104.5,479.3,104.5"/>
		<path class="st0" d="M488.8,104.5c-1.6,0-2.8,0.4-3.8,1.1c-1,0.7-1.4,1.7-1.4,2.9c0,0.8,0.2,1.5,0.7,2.1c0.5,0.5,1,1,1.7,1.3
			c0.7,0.3,1.6,0.6,2.6,0.9c0.9,0.3,1.6,0.5,2,0.7c0.4,0.2,0.8,0.4,1.1,0.7c0.3,0.3,0.5,0.7,0.5,1.2c0,0.7-0.3,1.2-0.9,1.7
			c-0.6,0.4-1.4,0.7-2.4,0.7c-1,0-1.8-0.2-2.5-0.7c-0.7-0.5-1-1-1-1.6v-0.2c0-0.2-0.1-0.3-0.3-0.3h-1.4c-0.2,0-0.3,0.1-0.3,0.3v0.3
			c0,0.7,0.2,1.3,0.7,1.9c0.4,0.6,1.1,1,1.9,1.4c0.8,0.3,1.8,0.5,2.8,0.5c1.6,0,2.9-0.4,3.8-1.1c1-0.7,1.5-1.7,1.5-3
			c0-0.9-0.2-1.6-0.7-2.1c-0.5-0.5-1.1-1-1.8-1.2c-0.7-0.3-1.6-0.6-2.7-0.9c-1.2-0.3-2.1-0.7-2.7-1c-0.6-0.3-0.9-0.8-0.9-1.5
			c0-0.7,0.3-1.2,0.9-1.6c0.6-0.4,1.4-0.6,2.3-0.6c1,0,1.9,0.2,2.5,0.7c0.6,0.4,0.9,1,0.9,1.6v0.1c0,0.2,0.1,0.3,0.3,0.3h1.3
			c0.2,0,0.3-0.1,0.3-0.3v-0.1c0-0.7-0.2-1.4-0.7-2c-0.4-0.6-1.1-1.1-1.9-1.4C490.8,104.7,489.9,104.5,488.8,104.5"/>
	</g>
	<g>
		<g>
			<g>
				<path class="st1" d="M224.6,64.9h-14.7l-2.5,7.2h-6l12.6-35.2h6.7l12.6,35.2h-6.1L224.6,64.9z M217.3,43.9l-5.8,16.3H223
					L217.3,43.9z"/>
			</g>
			<g>
				<path class="st1" d="M254.7,36.5c7.3,0,13.7,3.7,16.3,10.6h-6.9c-1.9-3.7-5.2-5.5-9.4-5.5c-7,0-12,5-12,12.9
					c0,7.9,5.1,12.9,12,12.9c4.2,0,7.5-1.8,9.4-5.5h6.9c-2.7,6.9-9,10.5-16.3,10.5c-9.9,0-17.9-7.4-17.9-17.9
					C236.7,44,244.8,36.5,254.7,36.5z"/>
			</g>
			<g>
				<path class="st1" d="M283.5,56.4v15.7h-5.8V37h5.8v16l13.7-16h7.2l-15.3,17.6l15.5,17.5h-7.5L283.5,56.4z"/>
			</g>
			<g>
				<path class="st1" d="M322.9,37h20.7v4.7h-14.9v10.4h11.6v4.7h-11.6v15.4h-5.8V37z"/>
			</g>
			<g>
				<path class="st1" d="M361,37c8.3,0,12.4,4.8,12.4,10.5c0,4.1-2.2,8.6-8.1,10.1l8.7,14.6h-6.9l-8.1-14.1h-4.4v14.1h-5.8V37H361z
					 M361,41.7h-6.4v11.8h6.4c4.5,0,6.5-2.5,6.5-6C367.5,44,365.5,41.7,361,41.7z"/>
			</g>
			<g>
				<path class="st1" d="M400.2,41.6h-13.7v10.3h12.1v4.7h-12.1v10.8h13.7v4.7h-19.4V36.9h19.4V41.6z"/>
			</g>
			<g>
				<path class="st1" d="M436.2,36.9v35.2h-5.8l-17.3-26.2v26.2h-5.8V36.9h5.8l17.3,26.2V36.9H436.2z"/>
			</g>
			<g>
				<path class="st1" d="M449.5,56.4v15.7h-5.8V37h5.8v16l13.7-16h7.2l-15.3,17.6l15.5,17.5h-7.5L449.5,56.4z"/>
			</g>
			<g>
				<path class="st1" d="M495.2,41.6h-13.7v10.3h12.1v4.7h-12.1v10.8h13.7v4.7h-19.4V36.9h19.4V41.6z"/>
			</g>
			<g>
				<path class="st1" d="M531.1,36.9v35.2h-5.8L508,45.9v26.2h-5.8V36.9h5.8l17.3,26.2V36.9H531.1z"/>
			</g>
		</g>
		<path class="st1" d="M188.9,36.4v23.9c0,4.4-2.4,7.1-6.4,7.1c-2.7,0-4.9-1.1-6.7-3.2l-0.4-0.5l-3.6,4.3l0.3,0.4
			c2.7,3.1,6.2,4.7,10.4,4.7c3.6,0,6.6-1.1,8.8-3.3c2.3-2.2,3.4-5.3,3.4-9.2V36.4H188.9z"/>
	</g>
	<g>
		<g>
			<polygon class="st2" points="63.8,129 129,63.8 96.4,31.2 80.1,47.5 63.8,47.5 63.8,63.8 80.1,63.8 80.1,80.1 63.8,80.1 
				63.8,112.7 55.7,120.8 			"/>
			<path class="st3" d="M61.5,1L0.9,61.5c-1.3,1.3-1.3,3.3,0,4.6l60.6,60.6c1.3,1.3,3.3,1.3,4.6,0l60.6-60.6c1.3-1.3,1.3-3.3,0-4.6
				L66.1,1c-0.6-0.6-1.5-1-2.3-1C63,0,62.1,0.3,61.5,1"/>
			<polygon class="st4" points="43.4,109.2 55.4,121.1 63.8,112.7 63.8,80.1 80.1,80.1 80.1,63.8 63.8,63.8 63.8,47.5 80.1,47.5 
				96.4,31.2 43.4,31.2 			"/>
			<path class="st1" d="M43.4,31.2h52.9L66.1,1c-1.3-1.3-3.3-1.3-4.6,0L0.9,61.5c-1.3,1.3-1.3,3.3,0,4.6l42.5,42.5V31.2z"/>
		</g>
	</g>
</g>
</svg>
