<?xml version="1.0" encoding="utf-8"?>
<!-- Generator: Adobe Illustrator 21.1.0, SVG Export Plug-In . SVG Version: 6.00 Build 0)  -->
<svg version="1.1" id="Layer_1" xmlns="http://www.w3.org/2000/svg" xmlns:xlink="http://www.w3.org/1999/xlink" x="0px" y="0px"
	 viewBox="0 0 24 30" style="enable-background:new 0 0 24 30;" xml:space="preserve">
<style type="text/css">
	.st0{fill:#CCE9F5;}
	.st1{clip-path:url(#SVGID_2_);fill:#CCE9F5;}
</style>
<polygon class="st0" points="4.9,24.2 4.9,28.2 4.8,28.2 2.5,24.2 0,24.2 0,30 1.7,30 1.7,25.8 1.7,25.8 4.1,30 6.6,30 6.6,24.2 "/>
<polygon class="st0" points="12.3,24.2 10.7,28.4 10.7,28.4 9.3,24.2 7.4,24.2 9.6,30 11.7,30 14.1,24.2 "/>
<polygon class="st0" points="20.7,24.2 19.2,28.2 19.2,28.2 17.8,24.2 14.9,24.2 14.9,30 16.7,30 16.7,25.5 16.7,25.5 18.3,30 
	20,30 21.7,25.5 21.8,25.5 21.8,30 23.6,30 23.6,24.2 "/>
<g>
	<defs>
		<rect id="SVGID_1_" y="0.3" width="23.6" height="29.7"/>
	</defs>
	<clipPath id="SVGID_2_">
		<use xlink:href="#SVGID_1_"  style="overflow:visible;"/>
	</clipPath>
	<path class="st1" d="M21.8,0.3c0.9,0,1.7,0.7,1.7,1.6v19.4c0,0.5-0.4,0.9-0.9,0.9h-5.2c-0.5,0-0.9-0.4-0.9-0.9v-6.7
		c0-1,0.9-1.8,2-1.8h0.2c1.8,0,3.2-1.3,3.2-2.9c0-1.6-1.4-2.9-3.2-2.9c-1.8,0-3.2,1.3-3.2,2.9l0,11.4c0,0.5-0.4,0.9-0.9,0.9H9.2
		c-0.5,0-0.9-0.4-0.9-0.9l0-11.4C8.3,8.3,6.9,7,5.1,7C3.3,7,1.9,8.3,1.9,9.9c0,1.6,1.4,2.9,3.2,2.9h0.2c1.1,0,2,0.8,2,1.8v6.7
		c0,0.5-0.4,0.9-0.9,0.9H1.1c-0.5,0-0.9-0.4-0.9-0.9V1.9c0-0.9,0.8-1.6,1.7-1.6l7,0c1.4,0,2.5,1,2.5,2.3l-0.1,0
		C9.8,2.9,8.7,4.1,8.7,5.5c0,1.6,1.4,2.9,3.1,2.9h0c1.7,0,3.1-1.3,3.1-2.9c0-1.4-1.1-2.6-2.6-2.8l-0.1,0c0-1.3,1.1-2.3,2.5-2.3
		L21.8,0.3z"/>
</g>
</svg>
