<?xml version="1.0" encoding="utf-8"?>
<!-- Generator: Adobe Illustrator 21.1.0, SVG Export Plug-In . SVG Version: 6.00 Build 0)  -->
<svg version="1.1" id="Layer_1" xmlns="http://www.w3.org/2000/svg" xmlns:xlink="http://www.w3.org/1999/xlink" x="0px" y="0px"
	 viewBox="0 0 50 50" style="enable-background:new 0 0 50 50;" xml:space="preserve">
<style type="text/css">
	.st0{fill:#0077B4;}
	.st1{clip-path:url(#SVGID_2_);fill:#FFFFFF;}
</style>
<rect class="st0" width="50" height="50"/>
<g>
	<defs>
		<rect id="SVGID_1_" width="50" height="50"/>
	</defs>
	<clipPath id="SVGID_2_">
		<use xlink:href="#SVGID_1_"  style="overflow:visible;"/>
	</clipPath>
	<path class="st1" d="M34,33.8h-3.7v-5.7c0-1.4,0-3.1-1.9-3.1c-1.9,0-2.2,1.5-2.2,3v5.8h-3.7V22h3.6v1.6h0c0.5-0.9,1.7-1.9,3.5-1.9
		c3.8,0,4.5,2.4,4.5,5.6V33.8z M18.2,20.4c-1.2,0-2.2-1-2.2-2.1c0-1.2,1-2.1,2.2-2.1c1.2,0,2.2,0.9,2.2,2.1
		C20.3,19.5,19.4,20.4,18.2,20.4 M20.1,33.8h-3.7V22h3.7V33.8z"/>
</g>
</svg>
