<?xml version="1.0" encoding="utf-8"?>
<!-- Generator: Adobe Illustrator 21.1.0, SVG Export Plug-In . SVG Version: 6.00 Build 0)  -->
<svg version="1.1" id="Layer_1" xmlns="http://www.w3.org/2000/svg" xmlns:xlink="http://www.w3.org/1999/xlink" x="0px" y="0px"
	 viewBox="0 0 50 50" style="enable-background:new 0 0 50 50;" xml:space="preserve">
<style type="text/css">
	.st0{fill:#089FE8;}
	.st1{clip-path:url(#SVGID_2_);fill:#FFFFFF;}
</style>
<rect class="st0" width="50" height="50"/>
<g>
	<defs>
		<rect id="SVGID_1_" width="50" height="50"/>
	</defs>
	<clipPath id="SVGID_2_">
		<use xlink:href="#SVGID_1_"  style="overflow:visible;"/>
	</clipPath>
	<path class="st1" d="M15,31.3c1.8,1.2,4,1.8,6.3,1.8c7.6,0,11.9-6.4,11.7-12.2c0.8-0.6,1.5-1.3,2-2.1c-0.7,0.3-1.5,0.5-2.4,0.6
		c0.8-0.5,1.5-1.3,1.8-2.3c-0.8,0.5-1.7,0.8-2.6,1c-0.7-0.8-1.8-1.3-3-1.3c-2.6,0-4.6,2.5-4,5c-3.4-0.2-6.4-1.8-8.5-4.3
		c-1.1,1.8-0.6,4.3,1.3,5.5c-0.7,0-1.3-0.2-1.9-0.5c0,1.9,1.3,3.7,3.3,4.1c-0.6,0.2-1.2,0.2-1.9,0.1c0.5,1.6,2,2.8,3.8,2.9
		C19.3,30.9,17.2,31.5,15,31.3"/>
</g>
</svg>
