<svg xmlns="http://www.w3.org/2000/svg" xmlns:xlink="http://www.w3.org/1999/xlink" viewBox="0 0 50 50">
  <path fill="#089fe8" d="M0 0h50v50H0z"/>
  <defs>
    <path id="a" d="M0 0h50v50H0z"/>
  </defs>
  <clipPath id="b">
    <use xlink:href="#a" overflow="visible"/>
  </clipPath>
  <path d="M15 31.3c1.8 1.2 4 1.8 6.3 1.8 7.6 0 11.9-6.4 11.7-12.2.8-.6 1.5-1.3 2-2.1-.7.3-1.5.5-2.4.6.8-.5 1.5-1.3 1.8-2.3-.8.5-1.7.8-2.6 1-.7-.8-1.8-1.3-3-1.3-2.6 0-4.6 2.5-4 5-3.4-.2-6.4-1.8-8.5-4.3-1.1 1.8-.6 4.3 1.3 5.5-.7 0-1.3-.2-1.9-.5 0 1.9 1.3 3.7 3.3 4.1-.6.2-1.2.2-1.9.1.5 1.6 2 2.8 3.8 2.9-1.6 1.3-3.7 1.9-5.9 1.7" clip-path="url(#b)" fill="#fff"/>
</svg>