<svg xmlns="http://www.w3.org/2000/svg" xmlns:xlink="http://www.w3.org/1999/xlink" viewBox="0 0 50 50">
  <path fill="#0077b4" d="M0 0h50v50H0z"/>
  <defs>
    <path id="a" d="M0 0h50v50H0z"/>
  </defs>
  <clipPath id="b">
    <use xlink:href="#a" overflow="visible"/>
  </clipPath>
  <path d="M34 33.8h-3.7v-5.7c0-1.4 0-3.1-1.9-3.1s-2.2 1.5-2.2 3v5.8h-3.7V22h3.6v1.6c.5-.9 1.7-1.9 3.5-1.9 3.8 0 4.5 2.4 4.5 5.6v6.5zM18.2 20.4c-1.2 0-2.2-1-2.2-2.1 0-1.2 1-2.1 2.2-2.1 1.2 0 2.2.9 2.2 2.1-.1 1.2-1 2.1-2.2 2.1m1.9 13.4h-3.7V22h3.7v11.8z" clip-path="url(#b)" fill="#fff"/>
</svg>