<?xml version="1.0" encoding="utf-8"?>
<!-- Generator: Adobe Illustrator 21.1.0, SVG Export Plug-In . SVG Version: 6.00 Build 0)  -->
<svg version="1.1" id="Layer_1" xmlns="http://www.w3.org/2000/svg" xmlns:xlink="http://www.w3.org/1999/xlink" x="0px" y="0px"
	 viewBox="0 0 50 46" style="enable-background:new 0 0 50 46;" xml:space="preserve">
<style type="text/css">
	.st0{fill:#003063;}
</style>
<path class="st0" d="M39.1,42.4L39.1,42.4l-28.2-0.1c-0.3,0-0.6-0.3-0.6-0.6l0-19.4l-4.9,0c-0.2,0-0.4-0.1-0.5-0.4
	c-0.1-0.2,0-0.5,0.1-0.6l5.8-5.3l0-10c0-0.3,0.3-0.6,0.6-0.6l6.6,0c0.3,0,0.6,0.3,0.6,0.6l0,3l6-5.4c0.2-0.2,0.5-0.2,0.8,0
	l19.4,17.6c0.2,0.2,0.3,0.6,0.1,0.8c-0.2,0.2-0.6,0.3-0.8,0.1l-19-17.3l-6.5,6c-0.2,0.2-0.4,0.2-0.6,0.1c-0.2-0.1-0.3-0.3-0.3-0.5
	l0-3.7l-5.5,0l0,9.7c0,0.2-0.1,0.3-0.2,0.4L7,21.3l4,0c0.2,0,0.3,0.1,0.4,0.2c0.1,0.1,0.2,0.2,0.2,0.4l0,19.4l27.1,0.1l0-19.5
	c0-0.3,0.2-0.6,0.6-0.6l4,0l-0.7-0.8c-0.2-0.2-0.2-0.6,0-0.8c0.2-0.2,2.5,1.8,2.5,1.8c0.2,0.2,0.2,0.4,0.1,0.6
	c-0.1,0.2-0.3,0.3-0.5,0.3l-4.7,0.1l0,19.5C39.7,42.2,39.4,42.4,39.1,42.4"/>
<g>
	<path class="st0" d="M16.2,24l1.7,6.5l15.8-4.2l-1.7-6.5L16.2,24z M17.5,31.8c-0.1,0-0.2,0-0.3-0.1c-0.1-0.1-0.2-0.2-0.3-0.4
		l-2-7.6c0-0.2,0-0.3,0.1-0.5c0.1-0.1,0.2-0.2,0.4-0.3l17-4.6c0.3-0.1,0.7,0.1,0.7,0.4l2,7.6c0.1,0.3-0.1,0.7-0.4,0.7l-17,4.6
		C17.6,31.8,17.6,31.8,17.5,31.8"/>
	<path class="st0" d="M18.2,23.5c-0.1,0-0.2,0-0.3-0.1c-0.3-0.1-0.4-0.5-0.3-0.8l4.1-8.1c0.1-0.2,0.2-0.3,0.4-0.3
		c0.2,0,0.3,0,0.5,0.1l7.9,4.9c0.3,0.2,0.4,0.5,0.2,0.8c-0.2,0.3-0.5,0.4-0.8,0.2l-7.3-4.5l-3.8,7.5C18.7,23.3,18.4,23.5,18.2,23.5"
		/>
</g>
</svg>
